<?xml version="1.0" encoding="UTF-8"?>
<svg version="1.1" xmlns="http://www.w3.org/2000/svg" width="1024" height="1024">
<path d="M0 0 C10.72556843 10.74592055 10.72556843 10.74592055 12.05859375 17.0625 C10.84913086 17.87871826 10.84913086 17.87871826 9.61523438 18.71142578 C6.58714795 20.75575479 3.56089661 22.80278656 0.53515625 24.85058594 C-0.76774005 25.73184336 -2.07111463 26.61239414 -3.375 27.4921875 C-5.26302376 28.76631397 -7.14960646 30.04252795 -9.03515625 31.3203125 C-9.64367432 31.73259094 -10.25219238 32.14486938 -10.87915039 32.56964111 C-14.86114045 35.28353264 -18.73386881 38.09878664 -22.50585938 41.09716797 C-23.94140625 42.0625 -23.94140625 42.0625 -25.94140625 42.0625 C-26.98637983 40.89284207 -27.97750225 39.67481908 -28.94140625 38.4375 C-34.35742289 32.07368045 -41.63518405 27.44687037 -49.94140625 26.0625 C-62.72745857 25.20174984 -72.88260143 26.81727151 -82.94140625 35.0625 C-90.72142965 42.21212625 -94.39097583 50.69248458 -94.96875 61.2109375 C-94.86546335 71.9822598 -92.15971411 81.43076986 -84.72265625 89.45703125 C-80.97152492 92.92682773 -77.77075152 95.31879297 -72.94140625 97.0625 C-70.94140625 98.0625 -70.94140625 98.0625 -67.94140625 100.0625 C-66.00678423 100.2425313 -64.06835012 100.38282028 -62.12890625 100.5 C-53.01463564 101.79481314 -47.60098521 107.16901732 -40.94140625 113.0625 C-39.28058729 114.48557883 -37.61207687 115.89916498 -35.94213867 117.31152344 C-34.86668702 118.22175703 -33.79388121 119.13512685 -32.72387695 120.05175781 C-27.32616074 124.65625529 -21.67134464 128.8811936 -15.94140625 133.0625 C-23.43441771 141.93012867 -39.87542235 145.74031358 -50.94140625 147.0625 C-65.07449206 148.18052323 -78.41733626 147.34808797 -91.94140625 143.0625 C-93.36453125 142.61197266 -93.36453125 142.61197266 -94.81640625 142.15234375 C-114.55608957 135.0275518 -129.55609996 119.39712036 -138.94140625 101.0625 C-148.96366177 79.578478 -150.03071256 54.63436159 -142.04199219 32.3215332 C-134.45586265 12.62363226 -120.71163722 -3.12578836 -101.94140625 -12.9375 C-101.94140625 -13.5975 -101.94140625 -14.2575 -101.94140625 -14.9375 C-100.92626953 -15.10958984 -100.92626953 -15.10958984 -99.890625 -15.28515625 C-96.39971382 -16.05731806 -93.1291961 -17.19627184 -89.75390625 -18.375 C-83.868102 -20.37910384 -78.09753878 -22.0281901 -71.94140625 -22.9375 C-71.19246094 -23.05996094 -70.44351563 -23.18242187 -69.671875 -23.30859375 C-44.31094541 -26.71528579 -18.78044087 -16.92884811 0 0 Z " fill="#1D71F7" transform="translate(214.94140625,430.9375)"/>
<path d="M0 0 C0.95158997 -0.00960754 1.90317993 -0.01921509 2.88360596 -0.02911377 C4.41026886 -0.03548859 4.41026886 -0.03548859 5.96777344 -0.04199219 C7.02695984 -0.04769226 8.08614624 -0.05339233 9.1774292 -0.05926514 C11.41661587 -0.06869858 13.65581632 -0.07524253 15.89501953 -0.07910156 C19.30103098 -0.08879287 22.70643508 -0.11982679 26.11230469 -0.15136719 C28.29329071 -0.15789937 30.47428102 -0.16314899 32.65527344 -0.16699219 C33.66495178 -0.17933899 34.67463013 -0.19168579 35.71490479 -0.20440674 C44.41090094 -0.17734018 52.26835503 1.43555654 59.07714844 7.16113281 C65.84849131 15.60650212 66.42227138 24.58374151 66.38964844 35.03613281 C66.40576172 36.0609375 66.421875 37.08574219 66.43847656 38.14160156 C66.44345448 45.97683663 65.47502194 53.16467697 61.38964844 59.97363281 C52.9370606 67.96932401 44.29319334 69.47213861 33.02636719 69.46191406 C31.44538994 69.46834175 31.44538994 69.46834175 29.83247375 69.47489929 C27.60943314 69.4806243 25.38637381 69.48115639 23.16333008 69.47680664 C19.78596546 69.47365272 16.40948271 69.49710875 13.03222656 69.52246094 C10.86360787 69.52473491 8.69498684 69.52543697 6.52636719 69.52441406 C5.52812424 69.53362381 4.52988129 69.54283356 3.50138855 69.55232239 C-5.1503451 69.49605043 -14.30590589 68.16254866 -20.92285156 62.16113281 C-26.44812454 53.16754989 -27.12679126 45.911217 -27.17285156 35.53613281 C-27.19347656 34.39789063 -27.21410156 33.25964844 -27.23535156 32.08691406 C-27.27887436 22.60982543 -26.43797265 13.77347446 -19.66503906 6.62988281 C-13.90462412 1.77356887 -7.43251285 0.06097974 0 0 Z M-7.92285156 16.16113281 C-12.1939633 21.9050417 -12.13041564 27.52590452 -12.17285156 34.41113281 C-12.19347656 35.23226562 -12.21410156 36.05339844 -12.23535156 36.89941406 C-12.27193812 42.67094306 -11.45274938 46.94179407 -8.92285156 52.16113281 C-1.52427522 59.04637181 11.92671342 57.47178078 21.32714844 57.41113281 C22.54144531 57.41886719 23.75574219 57.42660156 25.00683594 57.43457031 C34.5805658 57.41371251 42.06446252 57.17381873 49.07714844 50.16113281 C50.68065569 45.35061106 50.3448762 40.44950218 50.38964844 35.41113281 C50.41865234 34.33863281 50.44765625 33.26613281 50.47753906 32.16113281 C50.52991494 25.6181771 50.24835974 21.33537171 46.07714844 16.16113281 C40.91336651 12.80366089 36.46586463 12.72110302 30.51464844 12.76269531 C29.60513428 12.75982513 28.69562012 12.75695496 27.75854492 12.7539978 C25.84227879 12.75196316 23.92599161 12.75745095 22.00976562 12.77001953 C19.08643901 12.78608177 16.16449485 12.77015047 13.24121094 12.75097656 C11.3740204 12.7529591 9.50683073 12.756803 7.63964844 12.76269531 C6.3362854 12.75358627 6.3362854 12.75358627 5.0065918 12.74429321 C-0.03820857 12.80239678 -3.56337148 13.34084029 -7.92285156 16.16113281 Z " fill="#0E8CFC" transform="translate(783.9228515625,465.8388671875)"/>
<path d="M0 0 C2.08771869 0.00541817 4.17522665 -0.00002788 6.26293945 -0.00634766 C34.01727337 -0.02425184 34.01727337 -0.02425184 43.13208008 7.50537109 C47.24040155 12.58035644 49.25708008 17.55899803 49.25708008 24.13037109 C48.55304253 30.60971661 46.81068812 36.24306456 41.56958008 40.50146484 C36.50691297 43.94122052 31.15479975 45.64385568 25.25708008 47.13037109 C26.38859124 48.26188226 27.52084136 49.39265885 28.65551758 50.52099609 C29.77525455 51.64619519 30.88378984 52.78260298 31.98364258 53.92724609 C36.72370513 58.80385365 41.7694577 63.06529604 47.13208008 67.24755859 C47.83333008 67.86888672 48.53458008 68.49021484 49.25708008 69.13037109 C49.25708008 69.79037109 49.25708008 70.45037109 49.25708008 71.13037109 C45.98626537 71.15939539 42.71548378 71.17717793 39.44458008 71.19287109 C38.51581055 71.20125 37.58704102 71.20962891 36.63012695 71.21826172 C35.73745117 71.22148438 34.84477539 71.22470703 33.92504883 71.22802734 C33.10286865 71.23326416 32.28068848 71.23850098 31.43359375 71.24389648 C29.25708008 71.13037109 29.25708008 71.13037109 26.25708008 70.13037109 C26.25708008 69.47037109 26.25708008 68.81037109 26.25708008 68.13037109 C25.36632782 67.72759445 25.36632782 67.72759445 24.45758057 67.31668091 C22.24387693 66.12325316 20.81201572 64.92729771 19.04907227 63.14941406 C18.44875183 62.54894257 17.8484314 61.94847107 17.22991943 61.32980347 C16.5943512 60.68391266 15.95878296 60.03802185 15.30395508 59.37255859 C14.64373352 58.70950714 13.98351196 58.04645569 13.30328369 57.36331177 C11.19980184 55.24865278 9.10338866 53.12713897 7.00708008 51.00537109 C5.58045747 49.56871552 4.15337936 48.13251212 2.72583008 46.69677734 C-0.76905653 43.17986305 -4.25762054 39.65678562 -7.74291992 36.13037109 C-7.41291992 35.47037109 -7.08291992 34.81037109 -6.74291992 34.13037109 C-5.9669043 34.14084473 -5.19088867 34.15131836 -4.39135742 34.16210938 C-0.8419118 34.20393608 2.70748175 34.22978182 6.25708008 34.25537109 C8.08819336 34.28050781 8.08819336 34.28050781 9.95629883 34.30615234 C20.79508105 34.77151781 20.79508105 34.77151781 30.24536133 30.36474609 C31.52126771 27.54691424 31.55465423 25.46244738 31.44458008 22.38037109 C31.41750977 21.39552734 31.39043945 20.41068359 31.36254883 19.39599609 C31.3103418 18.27451172 31.3103418 18.27451172 31.25708008 17.13037109 C26.41009249 14.62103147 21.69041383 14.7833437 16.36254883 14.71630859 C15.52228149 14.69866455 14.68201416 14.68102051 13.81628418 14.6628418 C10.69257359 14.60001542 7.56854917 14.55366279 4.44458008 14.50537109 C-2.54729492 14.38162109 -9.53916992 14.25787109 -16.74291992 14.13037109 C-16.74291992 32.61037109 -16.74291992 51.09037109 -16.74291992 70.13037109 C-19.74291992 71.13037109 -19.74291992 71.13037109 -32.74291992 71.13037109 C-32.74291992 48.03037109 -32.74291992 24.93037109 -32.74291992 1.13037109 C-21.7657642 0.52052911 -10.96870054 -0.03371394 0 0 Z " fill="#092C68" transform="translate(558.742919921875,464.86962890625)"/>
<path d="M0 0 C1.42059066 0.00934682 2.84119764 0.01645408 4.2618103 0.0214386 C7.96769151 0.04036227 11.67256407 0.08933108 15.37805176 0.1449585 C19.17246869 0.1964715 22.96705156 0.21902036 26.76171875 0.24414062 C34.18274726 0.29746886 41.60295008 0.38259747 49.0234375 0.48828125 C44.31857946 12.43375657 44.31857946 12.43375657 39.7109375 14.55078125 C37.0234375 14.48828125 37.0234375 14.48828125 33.36743164 13.99487305 C29.17526226 13.45852625 25.05455653 13.32700296 20.83203125 13.3203125 C19.70862083 13.3153199 19.70862083 13.3153199 18.56251526 13.31022644 C16.99195971 13.30520183 15.42139365 13.30281672 13.85083008 13.30297852 C11.4635252 13.30078363 9.07667708 13.28255775 6.68945312 13.26367188 C5.15364739 13.26073856 3.6178395 13.25875335 2.08203125 13.2578125 C1.02549599 13.24703423 1.02549599 13.24703423 -0.05238342 13.23603821 C-4.67249495 13.25711602 -8.64597977 13.86071379 -12.9765625 15.48828125 C-15.54343617 19.33859175 -14.80944974 21.07397888 -13.9765625 25.48828125 C-9.19816362 27.95277445 -4.71004977 27.76765522 0.53125 27.76171875 C2.42448493 27.78202137 4.31771405 27.8028724 6.2109375 27.82421875 C9.17290153 27.84671716 12.13463442 27.86325382 15.09667969 27.86914062 C39.18001072 27.94971383 39.18001072 27.94971383 46.70385742 33.79345703 C50.78522487 38.06011178 51.93584444 43.25249046 52.08984375 48.94140625 C51.78005321 55.06211629 50.28287958 59.96784395 46.0234375 64.48828125 C40.08592326 68.55265112 34.43548182 69.61497022 27.32714844 69.60180664 C26.33140808 69.60202568 26.33140808 69.60202568 25.31555176 69.60224915 C23.129605 69.60155457 20.94374431 69.59378356 18.7578125 69.5859375 C17.23895311 69.5840717 15.72009312 69.58264856 14.20123291 69.58164978 C10.20965911 69.57783735 6.21812188 69.56801795 2.2265625 69.5569458 C-1.8489533 69.54670428 -5.92447503 69.54214629 -10 69.53710938 C-17.99220425 69.52639452 -25.98437882 69.50933341 -33.9765625 69.48828125 C-33.6855365 68.91473907 -33.3945105 68.3411969 -33.09466553 67.75027466 C-32.38520307 66.31498707 -31.71520431 64.85895703 -31.10113525 63.38034058 C-29.94476483 61.00430798 -28.88615302 59.32751983 -26.9765625 57.48828125 C-23.06403652 56.32393941 -19.26722746 56.46431042 -15.2109375 56.55859375 C-14.06296692 56.55246063 -12.91499634 56.54632751 -11.73223877 56.54000854 C-8.06255785 56.52708253 -4.39594676 56.56804556 -0.7265625 56.61328125 C2.92781016 56.62677847 6.58187727 56.62900715 10.23626709 56.62228394 C12.50799363 56.62150928 14.77977699 56.63409628 17.05133057 56.66213989 C23.37891599 56.69820372 28.90207125 56.11514527 35.0234375 54.48828125 C35.06178711 53.82675049 35.10013672 53.16521973 35.13964844 52.48364258 C35.23111979 50.90576172 35.32259115 49.32788086 35.4140625 47.75 C35.21845911 45.41426003 35.21845911 45.41426003 33.56201172 43.87451172 C29.77795351 41.8081641 26.26318776 42.04745729 22.015625 42.046875 C21.13496368 42.03366714 20.25430237 42.02045929 19.34695435 42.0068512 C16.53075067 41.96599627 13.71486997 41.94432308 10.8984375 41.92578125 C8.10353127 41.90185391 5.30892297 41.87343738 2.51419067 41.83399963 C0.77786581 41.81000155 -0.95861392 41.79485299 -2.69509888 41.79039001 C-11.39580261 41.68058774 -19.84344192 40.76679048 -26.9765625 35.48828125 C-31.17222617 29.85725895 -32.47240485 24.34045286 -31.7578125 17.34765625 C-30.59845419 11.50627398 -27.90118169 7.51078467 -23.02261353 4.13703918 C-15.45729705 -0.12394683 -8.50640664 -0.16615455 0 0 Z " fill="#0E92FE" transform="translate(894.9765625,465.51171875)"/>
<path d="M0 0 C0.66 0.33 1.32 0.66 2 1 C3.60681641 0.82597656 3.60681641 0.82597656 5.24609375 0.6484375 C11.36540908 0.13001511 16.45906977 0.20284875 21.62890625 3.859375 C28.397792 9.80084173 34.99151835 16.48727752 40 24 C43.29683679 22.56199845 45.45277516 20.78211585 47.96875 18.2265625 C49.07283203 17.1128125 49.07283203 17.1128125 50.19921875 15.9765625 C50.95847656 15.20054687 51.71773437 14.42453125 52.5 13.625 C53.25925781 12.85671875 54.01851562 12.0884375 54.80078125 11.296875 C56.21910526 9.86116348 57.63535995 8.42340253 59.04882812 6.98291016 C59.69271484 6.3285498 60.33660156 5.67418945 61 5 C61.67877197 4.26402588 62.35754395 3.52805176 63.05688477 2.76977539 C65 1 65 1 68.05859375 0.64453125 C69.73115234 0.72767578 69.73115234 0.72767578 71.4375 0.8125 C75.5082427 0.98702779 79.03165592 0.97168799 83 0 C83.495 2.475 83.495 2.475 84 5 C83.41516846 5.09659912 82.83033691 5.19319824 82.2277832 5.29272461 C79.52649461 6.15032823 78.33749637 7.30375186 76.35546875 9.31640625 C75.33936523 10.34024414 75.33936523 10.34024414 74.30273438 11.38476562 C73.60470703 12.10341797 72.90667969 12.82207031 72.1875 13.5625 C71.50107422 14.25408203 70.81464844 14.94566406 70.10742188 15.65820312 C63.71600086 22.14637224 57.81800463 29.00043572 52 36 C56.19599817 40.22074771 60.39529345 44.43817703 64.59765625 48.65258789 C66.02629868 50.0862539 67.45404162 51.52081685 68.88085938 52.95629883 C70.93382795 55.02141937 72.99002716 57.08327529 75.046875 59.14453125 C75.68244324 59.78526077 76.31801147 60.4259903 76.97283936 61.08613586 C79.38458383 63.49818377 81.65486961 65.75319647 84.43457031 67.7409668 C84.95116211 68.15644775 85.46775391 68.57192871 86 69 C86 69.99 86 70.98 86 72 C69.29390527 73.06097174 69.29390527 73.06097174 64.23828125 70.72265625 C62.24834991 68.94261625 60.6481777 67.09804263 59 65 C57.65732129 63.67575021 56.3028079 62.36340659 54.9375 61.0625 C51.66156092 57.74786873 48.56887804 54.30512321 45.54296875 50.76171875 C44.08870819 49.10128454 42.56767103 47.55240062 41 46 C40.30664551 46.792854 39.61329102 47.58570801 38.89892578 48.40258789 C36.27734131 51.37183104 33.59018764 54.27459182 30.88037109 57.16333008 C29.72395515 58.41447884 28.58524159 59.68226087 27.46630859 60.96704102 C18.39132365 71.34943904 18.39132365 71.34943904 12.61657715 72.45721436 C7.29330477 72.72853053 2.21478194 72.02083038 -3 71 C-3 70.34 -3 69.68 -3 69 C-2.34 69 -1.68 69 -1 69 C-0.72958893 68.40427185 -0.45917786 67.8085437 -0.18057251 67.19476318 C0.99017019 65.01827427 2.14318823 63.61457863 3.88916016 61.88378906 C4.4696109 61.30348938 5.05006165 60.7231897 5.64810181 60.12530518 C6.27211884 59.51161072 6.89613586 58.89791626 7.5390625 58.265625 C8.17991791 57.62759949 8.82077332 56.98957397 9.48104858 56.33221436 C11.52437821 54.30005931 13.57455982 52.27497782 15.625 50.25 C17.0134786 48.8715547 18.4015049 47.49265364 19.7890625 46.11328125 C23.18748697 42.73688106 26.59207254 39.36680712 30 36 C29.5868605 35.51834381 29.17372101 35.03668762 28.74806213 34.54043579 C28.20673141 33.90914764 27.6654007 33.2778595 27.10766602 32.62744141 C26.57077652 32.00141022 26.03388702 31.37537903 25.48072815 30.7303772 C23.50503548 28.42158503 21.54631974 26.09852491 19.58984375 23.7734375 C16.45704483 20.27886574 13.05765744 17.05086264 9.66796875 13.80859375 C8.50768897 12.68502339 7.34753438 11.56132372 6.1875 10.4375 C5.59001953 9.87353516 4.99253906 9.30957031 4.37695312 8.72851562 C3.81298828 8.17744141 3.24902344 7.62636719 2.66796875 7.05859375 C1.89876099 6.32080688 1.89876099 6.32080688 1.11401367 5.56811523 C0 4 0 4 0 0 Z " fill="#082D6B" transform="translate(658,464)"/>
<path d="M0 0 C1.16082596 0.00007553 2.32165192 0.00015106 3.51765442 0.00022888 C4.76052719 0.00539017 6.00339996 0.01055145 7.28393555 0.01586914 C8.56423141 0.01728409 9.84452728 0.01869904 11.16362 0.02015686 C14.55512469 0.02396142 17.94658606 0.03377396 21.33807373 0.04486084 C24.80374567 0.05511942 28.26942465 0.05966398 31.73510742 0.06469727 C38.52614177 0.07571784 45.31714411 0.09244969 52.1081543 0.11352539 C50.12346143 5.28962075 48.09072027 10.15354717 44.1081543 14.11352539 C40.67943205 15.30075036 37.51661245 15.12546335 33.92456055 14.92211914 C32.95082993 14.90464127 31.9770993 14.88716339 30.97386169 14.86915588 C27.86997612 14.80572945 24.77240698 14.68087741 21.6706543 14.55102539 C18.57331195 14.4582473 15.47608654 14.37832457 12.37815857 14.30787659 C10.4544177 14.26016246 8.53097027 14.1975474 6.60829163 14.11778259 C1.31709408 13.94241636 -2.91619404 14.23728582 -7.8918457 16.11352539 C-11.82236667 19.91302899 -11.93606804 24.47251408 -12.05981445 29.69555664 C-12.0717107 31.43901779 -12.07806277 33.18252412 -12.0793457 34.92602539 C-12.09771484 36.2225 -12.09771484 36.2225 -12.11645508 37.54516602 C-12.12893389 43.05663907 -11.82866327 47.91959719 -9.8918457 53.11352539 C-6.5879168 54.84491462 -3.68678474 55.38766161 0.01049805 55.52758789 C0.96964111 55.56634033 1.92878418 55.60509277 2.91699219 55.64501953 C3.94945068 55.67587646 4.98190918 55.7067334 6.0456543 55.73852539 C7.12000732 55.77647217 8.19436035 55.81441895 9.30126953 55.85351562 C22.89941964 56.28109382 36.50529074 56.20510345 50.1081543 56.11352539 C49.66608643 56.94267456 49.66608643 56.94267456 49.21508789 57.78857422 C48.03398725 60.09854649 48.03398725 60.09854649 47.39575195 62.66308594 C46.09093802 66.12546873 45.02321014 67.77967277 42.1081543 70.11352539 C35.8200355 71.74214852 29.09733051 71.24943878 22.66137695 71.03271484 C19.51350237 70.92704414 16.3708876 70.88941652 13.22143555 70.86547852 C-13.48229541 70.49752077 -13.48229541 70.49752077 -21.8918457 63.11352539 C-29.1067334 54.82751992 -29.25621105 46.4875454 -29.2668457 35.86352539 C-29.29133789 34.5912207 -29.31583008 33.31891602 -29.34106445 32.00805664 C-29.36939896 22.85601021 -27.82717747 16.1939073 -23.2668457 8.30102539 C-16.67350299 2.22820974 -8.78805342 -0.01914609 0 0 Z " fill="#082D6B" transform="translate(279.891845703125,465.886474609375)"/>
<path d="M0 0 C0.66 0.33 1.32 0.66 2 1 C6.30991069 1.13902938 9.83902682 1.09373532 14 0 C18.12360483 6.44361427 21.86174394 13.05636446 25.5625 19.75 C31.80585073 30.98020422 38.30093243 42.03636775 45 53 C45.3717334 52.33170166 45.7434668 51.66340332 46.12646484 50.97485352 C59.86599874 26.29661829 59.86599874 26.29661829 65.80004883 16.44555664 C67.94819812 12.86949613 69.80922213 9.29087106 71.5625 5.5 C72.86792436 3.12275353 73.43203894 2.21620608 75.98046875 1.24609375 C78.37361309 0.92069202 80.58766904 0.90676982 83 1 C84.68750501 0.97957634 86.37500532 0.95875978 88.0625 0.9375 C89.361875 0.958125 90.66125 0.97875 92 1 C92 4.67195121 90.9874694 6.05013308 89.09765625 9.1796875 C88.4627124 10.23994141 87.82776855 11.30019531 87.17358398 12.39257812 C86.46993278 13.55341176 85.76623693 14.71421833 85.0625 15.875 C83.97114828 17.69115442 82.88215879 19.50871154 81.79328918 21.32635498 C81.0332801 22.59474498 80.27251355 23.86268138 79.5110321 25.13018799 C76.77623831 29.68632904 74.0768605 34.2620785 71.3984375 38.8515625 C71.0233757 39.49398895 70.6483139 40.13641541 70.2618866 40.79830933 C68.80034862 43.30310661 67.33966745 45.8083943 65.88186646 48.31536865 C62.37747356 54.33927258 58.84168601 60.34440516 55.19140625 66.28125 C54.64814697 67.16876953 54.1048877 68.05628906 53.54516602 68.97070312 C52 71 52 71 49 72 C47.19233134 72.16834777 45.37738782 72.26571185 43.5625 72.3125 C42.14130859 72.36857422 42.14130859 72.36857422 40.69140625 72.42578125 C37.14997521 71.86552583 36.18819783 70.81010668 34 68 C32.84547432 65.8916162 31.76828696 63.73995344 30.75 61.5625 C27.99265244 55.83819923 24.90632625 50.48129716 21.515625 45.1015625 C17.94832575 39.36299538 14.61814689 33.4817476 11.25 27.625 C10.27450195 25.92972168 10.27450195 25.92972168 9.27929688 24.20019531 C6.17826649 18.80465898 3.08421529 13.40516518 0 8 C-0.66 8 -1.32 8 -2 8 C-2.33 6.02 -2.66 4.04 -3 2 C-2.01 1.34 -1.02 0.68 0 0 Z " fill="#082D6C" transform="translate(422,464)"/>
<path d="M0 0 C4.92029257 0.48523595 6.9358189 1.11912396 10.2890625 4.796875 C12.58241637 8.40037981 14.40291366 12.23451822 16.24072266 16.08496094 C18.84032085 21.32450383 21.86292459 26.32709423 24.8125 31.375 C26.08727705 33.59372847 27.3620161 35.81247878 28.63671875 38.03125 C31.35715005 42.73159211 34.13162973 47.39336645 36.95703125 52.03125 C37.30847702 52.60959595 37.65992279 53.18794189 38.02201843 53.78381348 C39.71795972 56.57282951 41.42272895 59.35574988 43.14135742 62.13085938 C44.04591675 63.61295898 44.04591675 63.61295898 44.96875 65.125 C45.50693359 65.99640625 46.04511719 66.8678125 46.59960938 67.765625 C47.10717773 68.80976562 47.10717773 68.80976562 47.625 69.875 C47.295 70.535 46.965 71.195 46.625 71.875 C41.015 71.875 35.405 71.875 29.625 71.875 C28.80257812 70.41191406 27.98015625 68.94882812 27.1328125 67.44140625 C20.41640308 55.51313587 13.62640446 43.6382696 6.625 31.875 C5.99335938 30.80894531 5.36171875 29.74289062 4.7109375 28.64453125 C2.47300904 24.53520557 2.47300904 24.53520557 -0.375 20.875 C-6.74148407 31.67161815 -13.07399639 42.4875666 -19.37548828 53.32226562 C-20.49551896 55.24562201 -21.62452713 57.16378332 -22.76318359 59.07617188 C-23.84235741 60.95009623 -24.86136511 62.85990168 -25.81884766 64.79882812 C-29.24866391 71.44902417 -29.24866391 71.44902417 -32.4375 72.6550293 C-34.79010627 72.86124097 -36.90396926 72.75846101 -39.25 72.5 C-40.03375 72.45488281 -40.8175 72.40976562 -41.625 72.36328125 C-43.54499895 72.24620814 -45.4610236 72.06682392 -47.375 71.875 C-46.8242478 68.2001259 -45.9348406 65.84772754 -43.765625 62.84375 C-39.86480191 57.2180099 -36.51376732 51.31897377 -33.125 45.375 C-32.1281888 43.63576556 -31.13008109 41.89727974 -30.1318512 40.15885925 C-29.15033121 38.4494881 -28.16964214 36.73963991 -27.18896484 35.02978516 C-21.60648747 25.32093285 -21.60648747 25.32093285 -18.72045898 20.55102539 C-16.82008981 17.40693635 -15.0641158 14.28654283 -13.515625 10.953125 C-10.30725691 4.34786383 -7.64206749 0.94280271 0 0 Z " fill="#092D6B" transform="translate(383.375,464.125)"/>
<path d="M0 0 C7.96274651 5.02237452 15.85760886 10.14630336 23.74121094 15.29174805 C28.79367034 18.58456805 33.87562495 21.82016865 39 25 C36.66630806 29.21317538 33.77496675 32.76013649 30.625 36.375 C26.84040135 40.7753345 23.2494544 45.18184348 20 50 C15.15288225 48.43372295 11.65016713 45.64640654 7.6875 42.5625 C1.310701 37.6780641 -5.18546575 33.03746389 -11.85864258 28.56665039 C-14.83342419 26.55951845 -17.52151972 24.59221908 -20 22 C-17.86472714 19.62747459 -15.72939624 17.25500184 -13.59375 14.8828125 C-11.88426191 12.98280917 -10.17590103 11.08179096 -8.46875 9.1796875 C-7.6746875 8.29539062 -6.880625 7.41109375 -6.0625 6.5 C-4.96615234 5.27796875 -4.96615234 5.27796875 -3.84765625 4.03125 C-2.5977181 2.65711081 -1.3135075 1.3135075 0 0 Z " fill="#1C6DF5" transform="translate(190,510)"/>
<path d="M0 0 C5.28 0 10.56 0 16 0 C16 22.77 16 45.54 16 69 C11.22972165 71.38513918 5.31977973 69.37998427 0 69 C0 46.23 0 23.46 0 0 Z " fill="#082E6E" transform="translate(624,466)"/>
<path d="M0 0 C0.66 0.33 1.32 0.66 2 1 C6.30991069 1.13902938 9.83902682 1.09373532 14 0 C18.12360483 6.44361427 21.86174394 13.05636446 25.5625 19.75 C31.80585073 30.98020422 38.30093243 42.03636775 45 53 C45.3717334 52.33170166 45.7434668 51.66340332 46.12646484 50.97485352 C59.86599874 26.29661829 59.86599874 26.29661829 65.80004883 16.44555664 C67.94819812 12.86949613 69.80922213 9.29087106 71.5625 5.5 C72.86792436 3.12275353 73.43203894 2.21620608 75.98046875 1.24609375 C78.37361309 0.92069202 80.58766904 0.90676982 83 1 C84.68750501 0.97957634 86.37500532 0.95875978 88.0625 0.9375 C89.361875 0.958125 90.66125 0.97875 92 1 C92 4.67195121 90.9874694 6.05013308 89.09765625 9.1796875 C88.4627124 10.23994141 87.82776855 11.30019531 87.17358398 12.39257812 C86.46993278 13.55341176 85.76623693 14.71421833 85.0625 15.875 C83.97114828 17.69115442 82.88215879 19.50871154 81.79328918 21.32635498 C81.0332801 22.59474498 80.27251355 23.86268138 79.5110321 25.13018799 C76.77623831 29.68632904 74.0768605 34.2620785 71.3984375 38.8515625 C71.0233757 39.49398895 70.6483139 40.13641541 70.2618866 40.79830933 C68.80034862 43.30310661 67.33966745 45.8083943 65.88186646 48.31536865 C62.37747356 54.33927258 58.84168601 60.34440516 55.19140625 66.28125 C54.64814697 67.16876953 54.1048877 68.05628906 53.54516602 68.97070312 C52 71 52 71 49 72 C47.10529184 72.0685495 45.2083166 72.08480372 43.3125 72.0625 C42.31863281 72.05347656 41.32476562 72.04445313 40.30078125 72.03515625 C39.54152344 72.02355469 38.78226562 72.01195312 38 72 C37.67 71.01 37.34 70.02 37 69 C38.27230469 69.309375 38.27230469 69.309375 39.5703125 69.625 C43.84838612 70.07631326 47.23790184 70.15070021 51 68 C56.3215726 62.0774196 59.64373324 54.45255809 63.22802734 47.41015625 C66.05582851 41.96806109 69.18891083 36.7134677 72.3125 31.4375 C73.46833935 29.45755137 74.62331311 27.47709714 75.77734375 25.49609375 C79.79442104 18.62956964 83.87827064 11.80412466 88 5 C83.71 4.67 79.42 4.34 75 4 C74.67 5.32 74.34 6.64 74 8 C73.23030672 9.55012728 72.40791248 11.07457972 71.55078125 12.578125 C71.03902344 13.48095215 70.52726562 14.3837793 70 15.31396484 C69.443125 16.28285645 68.88625 17.25174805 68.3125 18.25 C67.73886719 19.25111816 67.16523438 20.25223633 66.57421875 21.28369141 C65.35155352 23.41508537 64.12705004 25.5454257 62.90087891 27.67480469 C60.97532178 31.04316946 59.08498099 34.42953424 57.19921875 37.8203125 C55.96676686 40.0055587 54.73371128 42.19046456 53.5 44.375 C52.92548096 45.42075195 52.35096191 46.46650391 51.7590332 47.54394531 C51.20948975 48.50655273 50.65994629 49.46916016 50.09375 50.4609375 C49.61615234 51.31478027 49.13855469 52.16862305 48.64648438 53.04833984 C46.57649395 55.50200287 45.13394043 55.70611016 42 56 C41.59652344 55.01257813 41.19304687 54.02515625 40.77734375 53.0078125 C38.97312283 48.80533646 36.80793869 44.85512387 34.5625 40.875 C33.92139282 39.72994995 33.92139282 39.72994995 33.26733398 38.56176758 C28.29766859 29.70729469 23.31179885 20.85596839 18.18725586 12.09008789 C17.23002263 10.4049401 16.36833184 8.66572768 15.5390625 6.9140625 C14.09474748 4.68328687 14.09474748 4.68328687 11.08203125 4.51171875 C9.46361328 4.59873047 9.46361328 4.59873047 7.8125 4.6875 C6.72582031 4.73261719 5.63914062 4.77773438 4.51953125 4.82421875 C3.68808594 4.88222656 2.85664063 4.94023437 2 5 C5.58614162 12.55199235 9.52087698 19.73595392 13.92749023 26.83422852 C15.96130837 30.13757501 17.69525234 33.34254247 19 37 C15.0175812 35.67252707 14.12838306 33.26570693 12.20703125 29.77734375 C11.85613937 29.15726944 11.5052475 28.53719513 11.14372253 27.89833069 C10.02463359 25.91612949 8.91848997 23.92703414 7.8125 21.9375 C7.05617995 20.59262543 6.29902845 19.24821808 5.54101562 17.90429688 C3.68431803 14.60820912 1.83919871 11.30588148 0 8 C-0.66 8 -1.32 8 -2 8 C-2.33 6.02 -2.66 4.04 -3 2 C-2.01 1.34 -1.02 0.68 0 0 Z " fill="#0F2045" transform="translate(422,464)"/>
<path d="M0 0 C0.4125 0.556875 0.825 1.11375 1.25 1.6875 C1.8275 2.450625 2.405 3.21375 3 4 C3.53625 4.845625 4.0725 5.69125 4.625 6.5625 C9.03482971 11.08837786 14.98916912 12.13562071 21.16503906 12.36889648 C23.03184708 12.38310891 24.8988026 12.38327145 26.765625 12.37109375 C28.80989765 12.38845959 30.85416845 12.40604412 32.8984375 12.42382812 C36.08694683 12.43393082 39.27534244 12.43748652 42.46386719 12.43579102 C45.56479271 12.43935694 48.66485338 12.46666281 51.765625 12.49609375 C52.71777893 12.48791122 53.66993286 12.4797287 54.65093994 12.47129822 C58.95601625 12.51975865 61.34919273 12.59678245 65.07714844 14.90649414 C67.56901126 17.61951137 67.95431976 18.59649118 68.375 22.3125 C68 26 68 26 65.625 28.875 C61.96333299 31.83920663 60.34176882 32.11912642 55.71166992 32.07836914 C54.60679733 32.07249283 53.50192474 32.06661652 52.36357117 32.06056213 C51.16464737 32.05217819 49.96572357 32.04379425 48.73046875 32.03515625 C46.20767822 32.03886911 43.68489015 32.0447978 41.16210938 32.05273438 C37.17137511 32.06330293 33.18370631 32.0624636 29.19311523 32.02416992 C25.35040426 31.99111485 21.51067113 32.00861106 17.66796875 32.03515625 C16.47511765 32.01260269 15.28226654 31.99004913 14.05326843 31.96681213 C8.02540625 31.86971923 8.02540625 31.86971923 3.10610962 34.84542847 C1.83491673 36.85960522 0.84061893 38.77515806 0 41 C8.46746319 40.96184688 16.9344002 40.90234691 25.40149689 40.81609726 C29.33376152 40.77670143 33.26580487 40.74447465 37.19824219 40.72900391 C40.99811155 40.71378471 44.79737225 40.67924763 48.5969696 40.63169098 C50.04166859 40.61693103 51.4864545 40.60896209 52.93122864 40.60811615 C62.22895144 40.59720373 69.24772354 40.25755998 76.4765625 33.78125 C78.58112248 29.93907897 78.51634232 26.80722124 78.375 22.5 C78.37371094 21.75363281 78.37242187 21.00726562 78.37109375 20.23828125 C78.30517153 16.09983056 77.98870562 12.72793203 76 9 C74.20072961 7.72510734 74.20072961 7.72510734 72 7 C71.33846924 6.66178223 70.67693848 6.32356445 69.99536133 5.97509766 C65.64185884 4.55787629 61.43933642 4.64208313 56.88671875 4.5859375 C55.91716751 4.56657135 54.94761627 4.5472052 53.94868469 4.5272522 C50.86171172 4.46762564 47.77470112 4.4211386 44.6875 4.375 C42.59047882 4.33680466 40.49347306 4.29775202 38.39648438 4.2578125 C33.26444869 4.16193791 28.13233957 4.07784423 23 4 C23 3.67 23 3.34 23 3 C29.26206481 2.8981271 35.52391392 2.82833719 41.78662109 2.78027344 C43.91463202 2.76022532 46.04258832 2.73297946 48.17041016 2.69824219 C51.23874433 2.64942452 54.30634673 2.62696274 57.375 2.609375 C58.78954468 2.57840729 58.78954468 2.57840729 60.23266602 2.54681396 C67.57635781 2.54434964 72.98102939 4.13992258 78.375 9.25 C82.28859135 15.87300075 82.78319419 22.60912936 81 30 C78.70433983 35.75894059 75.59981901 38.82027794 69.96484375 41.30859375 C65.64224152 42.82966849 61.9080676 43.12205198 57.30371094 43.11352539 C56.30797058 43.11374443 56.30797058 43.11374443 55.29211426 43.1139679 C53.1061675 43.11327332 50.92030681 43.10550231 48.734375 43.09765625 C47.21551561 43.09579045 45.69665562 43.09436731 44.17779541 43.09336853 C40.18622161 43.0895561 36.19468438 43.0797367 32.203125 43.06866455 C28.1276092 43.05842303 24.05208747 43.05386504 19.9765625 43.04882812 C11.98435825 43.03811327 3.99218368 43.02105216 -4 43 C-3.708974 42.42645782 -3.417948 41.85291565 -3.11810303 41.26199341 C-2.40864057 39.82670582 -1.73864181 38.37067578 -1.12457275 36.89205933 C0.03179767 34.51602673 1.09040948 32.83923858 3 31 C6.91252598 29.83565816 10.70933504 29.97602917 14.765625 30.0703125 C15.91359558 30.06417938 17.06156616 30.05804626 18.24432373 30.05172729 C21.91400465 30.03880128 25.58061574 30.07976431 29.25 30.125 C32.90437266 30.13849722 36.55843977 30.1407259 40.21282959 30.13400269 C42.48455613 30.13322803 44.75633949 30.14581503 47.02789307 30.17385864 C53.35547849 30.20992247 58.87863375 29.62686402 65 28 C65.03834961 27.33846924 65.07669922 26.67693848 65.11621094 25.99536133 C65.20768229 24.41748047 65.29915365 22.83959961 65.390625 21.26171875 C65.19502161 18.92597878 65.19502161 18.92597878 63.53857422 17.38623047 C59.75451601 15.31988285 56.23975026 15.55917604 51.9921875 15.55859375 C51.11152618 15.54538589 50.23086487 15.53217804 49.32351685 15.51856995 C46.50731317 15.47771502 43.69143247 15.45604183 40.875 15.4375 C38.08009377 15.41357266 35.28548547 15.38515613 32.49075317 15.34571838 C30.75442831 15.3217203 29.01794858 15.30657174 27.28146362 15.30210876 C17.68463005 15.1809974 8.14418055 14.14418055 1.0625 7.0625 C-0.22873317 4.55598856 -0.23184031 2.78208376 0 0 Z " fill="#117AEB" transform="translate(865,492)"/>
<path d="M0 0 C0.83465834 2.41123522 1.0175462 3.90561356 0.546875 6.4375 C-3.14737265 30.50288471 2.21413518 53.74997969 16.375 73.5 C30.84188297 91.64574668 50.40130366 100.86882876 73.15234375 103.5390625 C86.97106912 104.8423081 99.9282003 102.35726657 113 98 C113 97.34 113 96.68 113 96 C115.01822917 95.54427083 117.03645833 95.08854167 119.0546875 94.6328125 C121.20719964 94.09525572 121.20719964 94.09525572 123 92 C115.42784342 85.54349031 107.818133 79.15920636 100 73 C100.99 72.67 101.98 72.34 103 72 C105.11938811 73.55523444 107.00006697 75.11491551 108.9375 76.875 C110.09387131 77.89215257 111.25278595 78.90642007 112.4140625 79.91796875 C113.30013184 80.69019775 113.30013184 80.69019775 114.20410156 81.47802734 C118.61777142 85.21848654 123.32888372 88.59134758 128 92 C120.50698854 100.86762867 104.0659839 104.67781358 93 106 C78.86691419 107.11802323 65.52406999 106.28558797 52 102 C50.576875 101.54947266 50.576875 101.54947266 49.125 101.08984375 C29.38531668 93.9650518 14.38530629 78.33462036 5 60 C-3.4145083 41.96239548 -5.97336232 20.4215244 -1 1 C-0.67 0.67 -0.34 0.34 0 0 Z " fill="#1957D7" transform="translate(71,472)"/>
<path d="M0 0 C0.98063919 0.00007553 1.96127838 0.00015106 2.97163391 0.00022888 C4.54064705 0.00797081 4.54064705 0.00797081 6.14135742 0.01586914 C7.22188889 0.01728409 8.30242035 0.01869904 9.41569519 0.02015686 C12.85943393 0.02574459 16.30310715 0.0382949 19.74682617 0.05102539 C22.08471586 0.05604197 24.42260656 0.0606046 26.76049805 0.06469727 C32.4851297 0.07571001 38.20972325 0.09243598 43.93432617 0.11352539 C43.93432617 0.44352539 43.93432617 0.77352539 43.93432617 1.11352539 C42.69457031 1.13334473 41.45481445 1.15316406 40.17749023 1.17358398 C35.52544727 1.25034115 30.87368893 1.33894331 26.22192383 1.4309082 C24.21840076 1.46891105 22.21481609 1.50381082 20.21118164 1.53540039 C0.03150077 0.91934308 0.03150077 0.91934308 -18.06567383 8.11352539 C-19.74184303 10.3819058 -20.8256034 12.54152746 -22.06567383 15.11352539 C-22.4242749 15.70286865 -22.78287598 16.29221191 -23.15234375 16.89941406 C-25.10606604 21.63566304 -24.39702547 27.20332791 -24.38134766 32.27539062 C-24.37819923 34.40880991 -24.40162082 36.5408254 -24.42700195 38.67407227 C-24.42927652 40.04581533 -24.42997771 41.41756208 -24.42895508 42.78930664 C-24.43193604 44.02592041 -24.43491699 45.26253418 -24.43798828 46.53662109 C-23.8012813 52.65360073 -21.38754971 57.66816734 -17.06567383 62.11352539 C-9.72942516 66.57906806 -2.14795088 66.28255526 6.17651367 66.31665039 C7.80002243 66.3252005 7.80002243 66.3252005 9.45632935 66.33392334 C11.74081451 66.34334746 14.02531311 66.349897 16.30981445 66.35375977 C19.79036286 66.36347247 23.27032221 66.39452401 26.75073242 66.42602539 C28.97598935 66.43255559 31.20125048 66.437806 33.42651367 66.44165039 C34.46009003 66.45399719 35.49366638 66.46634399 36.55856323 66.47906494 C45.59907191 66.4514099 52.41427325 64.63357831 58.93432617 58.11352539 C60.71812032 55.12999645 60.71812032 55.12999645 61.93432617 52.11352539 C62.60099284 50.78019206 63.26765951 49.44685872 63.93432617 48.11352539 C65.1120734 51.64676709 64.48013358 53.04674477 62.94604492 56.34399414 C59.6964328 62.02767866 53.98254752 66.00316736 47.9296875 68.20800781 C42.97445918 69.54740119 37.98391436 69.41893518 32.88354492 69.41430664 C31.30256767 69.42073433 31.30256767 69.42073433 29.68965149 69.42729187 C27.46661088 69.43301688 25.24355154 69.43354897 23.02050781 69.42919922 C19.64314319 69.4260453 16.26666045 69.44950133 12.8894043 69.47485352 C10.7207856 69.47712749 8.55216457 69.47782955 6.38354492 69.47680664 C5.38530197 69.48601639 4.38705902 69.49522614 3.35856628 69.50471497 C-5.29316737 69.44844301 -14.44872815 68.11494124 -21.06567383 62.11352539 C-26.59094681 53.11994247 -27.26961352 45.86360958 -27.31567383 35.48852539 C-27.33629883 34.3502832 -27.35692383 33.21204102 -27.37817383 32.03930664 C-27.42169662 22.562218 -26.58079492 13.72586704 -19.80786133 6.58227539 C-13.99980224 1.68579508 -7.49464854 -0.01936602 0 0 Z " fill="#1175E7" transform="translate(784.065673828125,465.886474609375)"/>
<path d="M0 0 C2.08771869 0.00541817 4.17522665 -0.00002788 6.26293945 -0.00634766 C35.25502694 -0.02505031 35.25502694 -0.02505031 43.25708008 7.81787109 C44.24708008 8.96255859 44.24708008 8.96255859 45.25708008 10.13037109 C45.75208008 10.62537109 45.75208008 10.62537109 46.25708008 11.13037109 C46.2977184 12.79654224 46.29980108 14.46425204 46.25708008 16.13037109 C45.66926758 15.29505859 45.66926758 15.29505859 45.06958008 14.44287109 C40.39360549 8.47697249 36.59964688 5.76321289 29.25708008 4.13037109 C24.58878804 3.68563931 19.94042848 3.64207577 15.25317383 3.61865234 C14.08274536 3.60201538 12.91231689 3.58537842 11.7064209 3.5682373 C7.36932004 3.510769 3.03191722 3.47826811 -1.30541992 3.44287109 C-15.87698242 3.28818359 -15.87698242 3.28818359 -30.74291992 3.13037109 C-30.74291992 24.58037109 -30.74291992 46.03037109 -30.74291992 68.13037109 C-27.44291992 68.13037109 -24.14291992 68.13037109 -20.74291992 68.13037109 C-20.74291992 68.79037109 -20.74291992 69.45037109 -20.74291992 70.13037109 C-26.68291992 70.62537109 -26.68291992 70.62537109 -32.74291992 71.13037109 C-32.74291992 48.03037109 -32.74291992 24.93037109 -32.74291992 1.13037109 C-21.7657642 0.52052911 -10.96870054 -0.03371394 0 0 Z " fill="#101E40" transform="translate(558.742919921875,464.86962890625)"/>
<path d="M0 0 C1.16082596 0.00007553 2.32165192 0.00015106 3.51765442 0.00022888 C4.76052719 0.00539017 6.00339996 0.01055145 7.28393555 0.01586914 C8.56423141 0.01728409 9.84452728 0.01869904 11.16362 0.02015686 C14.55512469 0.02396142 17.94658606 0.03377396 21.33807373 0.04486084 C24.80374567 0.05511942 28.26942465 0.05966398 31.73510742 0.06469727 C38.52614177 0.07571784 45.31714411 0.09244969 52.1081543 0.11352539 C47.80987991 10.88430673 47.80987991 10.88430673 44.1081543 14.11352539 C39.35251424 15.28789157 34.78530729 15.00527924 29.9206543 14.73852539 C28.5742529 14.69625783 27.2277244 14.65786658 25.88110352 14.62329102 C21.95365572 14.50928209 18.032119 14.3149641 14.1081543 14.11352539 C12.04180505 14.02622794 9.97540395 13.94014259 7.90893555 13.85571289 C3.6369682 13.66591654 -0.62631289 13.41436901 -4.8918457 13.11352539 C-2.8918457 11.11352539 -2.8918457 11.11352539 -0.89395142 10.88215637 C0.33371445 10.89384102 0.33371445 10.89384102 1.58618164 10.90576172 C2.97805191 10.90984795 2.97805191 10.90984795 4.39804077 10.91401672 C5.40323761 10.9244249 6.40843445 10.93483307 7.4440918 10.94555664 C9.5612838 10.93987922 11.67847214 10.93267007 13.7956543 10.92407227 C17.14279136 10.91989326 20.48870275 10.92607994 23.83569336 10.95898438 C27.06019668 10.98584731 30.28211531 10.969122 33.5065918 10.94555664 C35.00831436 10.97635063 35.00831436 10.97635063 36.54037476 11.00776672 C37.47459259 10.99473007 38.40881042 10.98169342 39.37133789 10.96826172 C40.60139053 10.97397942 40.60139053 10.97397942 41.85629272 10.97981262 C45.16275556 9.98021263 45.16275556 9.98021263 48.1081543 3.11352539 C28.6381543 3.11352539 9.1681543 3.11352539 -10.8918457 3.11352539 C-10.8918457 2.45352539 -10.8918457 1.79352539 -10.8918457 1.11352539 C-7.19607665 0.25899106 -3.78979961 -0.00825664 0 0 Z " fill="#102550" transform="translate(279.891845703125,465.886474609375)"/>
<path d="M0 0 C5.07087223 -1.03445793 10.05195368 -1.81856767 15 0 C18.94972688 4.20731776 21.1447899 9.03304374 23.61572266 14.20996094 C26.21532085 19.44950383 29.23792459 24.45209423 32.1875 29.5 C33.46227705 31.71872847 34.7370161 33.93747878 36.01171875 36.15625 C38.73215005 40.85659211 41.50662973 45.51836645 44.33203125 50.15625 C44.68347702 50.73459595 45.03492279 51.31294189 45.39701843 51.90881348 C47.09295972 54.69782951 48.79772895 57.48074988 50.51635742 60.25585938 C51.11939697 61.24392578 51.72243652 62.23199219 52.34375 63.25 C52.88193359 64.12140625 53.42011719 64.9928125 53.97460938 65.890625 C54.48217773 66.93476562 54.48217773 66.93476562 55 68 C54.67 68.66 54.34 69.32 54 70 C48.39 70 42.78 70 37 70 C35.32818524 67.04447033 33.66237821 64.08583038 32 61.125 C31.52304687 60.28324219 31.04609375 59.44148437 30.5546875 58.57421875 C30.10351562 57.76855469 29.65234375 56.96289062 29.1875 56.1328125 C28.76855469 55.38918457 28.34960938 54.64555664 27.91796875 53.87939453 C27 52 27 52 27 50 C27.66 50 28.32 50 29 50 C30.34130761 52.26645058 31.67316234 54.53760097 33 56.8125 C33.3815625 57.45509766 33.763125 58.09769531 34.15625 58.75976562 C37 63.66015625 37 63.66015625 37 67 C43.435 66.505 43.435 66.505 50 66 C40.36499818 48.58314904 40.36499818 48.58314904 30.27929688 31.42626953 C27.13960896 26.26045591 24.09251136 21.04332919 21.0625 15.8125 C20.58917236 14.9973291 20.11584473 14.1821582 19.62817383 13.34228516 C18.96338013 12.19252197 18.96338013 12.19252197 18.28515625 11.01953125 C17.89207275 10.33995361 17.49898926 9.66037598 17.09399414 8.96020508 C16 7 16 7 15.06079102 4.78686523 C14.53569946 3.90236694 14.53569946 3.90236694 14 3 C10.66024628 2.29211565 10.66024628 2.29211565 6.875 2.25 C4.95300781 2.16492188 4.95300781 2.16492188 2.9921875 2.078125 C2.00476563 2.05234375 1.01734375 2.0265625 0 2 C0 1.34 0 0.68 0 0 Z " fill="#0F2045" transform="translate(376,466)"/>
<path d="M0 0 C0.33 0 0.66 0 1 0 C1 22.77 1 45.54 1 69 C-3.77027835 71.38513918 -9.68022027 69.37998427 -15 69 C-15 46.89 -15 24.78 -15 2 C-14.67 2 -14.34 2 -14 2 C-14 23.78 -14 45.56 -14 68 C-8.06 67.505 -8.06 67.505 -2 67 C-2.01047363 65.04143066 -2.02094727 63.08286133 -2.03173828 61.06494141 C-2.06395324 54.60290115 -2.08695351 48.14087987 -2.10362434 41.67878151 C-2.11407365 37.75976716 -2.12825362 33.84083947 -2.15087891 29.921875 C-2.17256661 26.14176961 -2.18455998 22.36174772 -2.18975449 18.58158493 C-2.19345759 17.13744161 -2.2006886 15.693303 -2.21146011 14.2491951 C-2.22592017 12.23079106 -2.22681645 10.21230348 -2.22705078 8.19384766 C-2.231492 7.04357086 -2.23593323 5.89329407 -2.24050903 4.7081604 C-2 2 -2 2 0 0 Z " fill="#163465" transform="translate(639,466)"/>
<path d="M0 0 C1.61882584 0.00666183 1.61882584 0.00666183 3.27035522 0.01345825 C5.10202744 0.01368484 5.10202744 0.01368484 6.97070312 0.01391602 C8.30805625 0.02413001 9.64540772 0.03456201 10.98275757 0.04519653 C12.34753208 0.04892623 13.71230926 0.05177341 15.0770874 0.05377197 C18.6709023 0.0614119 22.2645558 0.08106331 25.85830688 0.10317993 C29.52476823 0.12363072 33.19125564 0.13277204 36.85775757 0.14285278 C44.05314369 0.164309 51.24839677 0.19844911 58.44369507 0.24050903 C53.73883702 12.18598435 53.73883702 12.18598435 49.13119507 14.30300903 C46.44369507 14.24050903 46.44369507 14.24050903 43.27963257 13.73660278 C36.36039071 12.84737978 29.34388013 13.17475686 22.38119507 13.24050903 C19.53614606 13.26730999 16.69116785 13.28719821 13.84603882 13.30300903 C12.5929895 13.3146106 11.33994019 13.32621216 10.04891968 13.33816528 C6.44065286 13.24042663 3.00331889 12.82190567 -0.55630493 12.24050903 C-0.55630493 11.91050903 -0.55630493 11.58050903 -0.55630493 11.24050903 C16.60369507 11.24050903 33.76369507 11.24050903 51.44369507 11.24050903 C52.10369507 9.59050903 52.76369507 7.94050903 53.44369507 6.24050903 C54.10369507 4.92050903 54.76369507 3.60050903 55.44369507 2.24050903 C35.64369507 2.24050903 15.84369507 2.24050903 -4.55630493 2.24050903 C-2.55630493 0.24050903 -2.55630493 0.24050903 0 0 Z " fill="#0A78EA" transform="translate(885.5563049316406,465.7594909667969)"/>
<path d="M0 0 C1.32173973 -0.00574036 1.32173973 -0.00574036 2.67018127 -0.01159668 C4.52500559 -0.01430627 6.37986873 -0.00701215 8.23461914 0.00976562 C11.05507702 0.03116405 13.87298056 0.00994552 16.69335938 -0.015625 C18.50391181 -0.01298105 20.31446267 -0.00785469 22.125 0 C23.37536293 -0.01214539 23.37536293 -0.01214539 24.65098572 -0.02453613 C31.6741296 0.08647999 37.10624777 1.94390797 42.06640625 7.03125 C45.48971328 12.50854125 44.88264983 18.57248115 44.94140625 24.84375 C44.97041016 25.86404297 44.99941406 26.88433594 45.02929688 27.93554688 C45.08352912 34.3891841 44.40513453 38.25048895 40.62890625 43.53125 C39.96890625 43.53125 39.30890625 43.53125 38.62890625 43.53125 C38.93828125 42.933125 39.24765625 42.335 39.56640625 41.71875 C42.256183 36.18097434 41.88773575 30.82097003 41.94140625 24.78125 C41.97041016 23.70875 41.99941406 22.63625 42.02929688 21.53125 C42.08155318 15.00323182 41.77874531 10.70617707 37.62890625 5.53125 C33.03748631 2.93560077 28.29006842 3.22512378 23.1640625 3.23046875 C22.25313339 3.22618362 21.34220428 3.2218985 20.40367126 3.21748352 C18.48144358 3.21175302 16.55919421 3.21123051 14.63696289 3.21557617 C11.70486262 3.2187355 8.7737725 3.19526328 5.84179688 3.16992188 C3.97005335 3.1676486 2.09830713 3.16694552 0.2265625 3.16796875 C-0.64548325 3.158759 -1.51752899 3.14954926 -2.41600037 3.14006042 C-7.46881087 3.17824272 -11.00657091 3.69151932 -15.37109375 6.53125 C-15.70109375 7.19125 -16.03109375 7.85125 -16.37109375 8.53125 C-17.03109375 8.53125 -17.69109375 8.53125 -18.37109375 8.53125 C-17.1564593 4.75238727 -14.85969391 3.241601 -11.45822144 1.37817383 C-7.70756658 -0.14378335 -3.99990801 -0.03875894 0 0 Z " fill="#1582EF" transform="translate(791.37109375,476.46875)"/>
<path d="M0 0 C0.99 0.495 0.99 0.495 2 1 C3.60681641 0.82597656 3.60681641 0.82597656 5.24609375 0.6484375 C11.36540908 0.13001511 16.45906977 0.20284875 21.62890625 3.859375 C28.397792 9.80084173 34.99151835 16.48727752 40 24 C43.15204981 22.60652624 45.26171773 20.97514921 47.671875 18.5234375 C48.33574219 17.853125 48.99960937 17.1828125 49.68359375 16.4921875 C50.36550781 15.79351562 51.04742188 15.09484375 51.75 14.375 C52.44738281 13.66859375 53.14476562 12.9621875 53.86328125 12.234375 C55.58012488 10.49401297 57.29211832 8.74915019 59 7 C59.99 7.33 60.98 7.66 62 8 C58.96204934 11.21170058 55.89100322 14.38968814 52.8125 17.5625 C51.94818359 18.47708984 51.08386719 19.39167969 50.19335938 20.33398438 C49.35224609 21.19443359 48.51113281 22.05488281 47.64453125 22.94140625 C46.87471924 23.74263916 46.10490723 24.54387207 45.31176758 25.36938477 C43 27 43 27 40.4206543 26.95166016 C37.77328417 25.91086855 36.52100831 24.93064654 34.625 22.83203125 C34.03203125 22.18556641 33.4390625 21.53910156 32.828125 20.87304688 C32.22484375 20.19306641 31.6215625 19.51308594 31 18.8125 C30.39671875 18.15185547 29.7934375 17.49121094 29.171875 16.81054688 C24.43153413 11.59101937 24.43153413 11.59101937 22.6887207 9.20410156 C20.48747175 6.20105541 19.34661402 5.08370749 15.66796875 4.1953125 C14.51941406 4.17210937 13.37085938 4.14890625 12.1875 4.125 C11.02605469 4.08632813 9.86460937 4.04765625 8.66796875 4.0078125 C7.78753906 4.00523437 6.90710938 4.00265625 6 4 C5.34 5.32 4.68 6.64 4 8 C2 6.25 2 6.25 0 4 C0 2.68 0 1.36 0 0 Z " fill="#0D1F48" transform="translate(658,464)"/>
<path d="M0 0 C0.4125 0.556875 0.825 1.11375 1.25 1.6875 C1.8275 2.450625 2.405 3.21375 3 4 C3.53625 4.845625 4.0725 5.69125 4.625 6.5625 C9.03482971 11.08837786 14.98916912 12.13562071 21.16503906 12.36889648 C23.03184708 12.38310891 24.8988026 12.38327145 26.765625 12.37109375 C28.80989765 12.38845959 30.85416845 12.40604412 32.8984375 12.42382812 C36.08694683 12.43393082 39.27534244 12.43748652 42.46386719 12.43579102 C45.56479271 12.43935694 48.66485338 12.46666281 51.765625 12.49609375 C52.71777893 12.48791122 53.66993286 12.4797287 54.65093994 12.47129822 C58.95601625 12.51975865 61.34919273 12.59678245 65.07714844 14.90649414 C67.56901126 17.61951137 67.95431976 18.59649118 68.375 22.3125 C68 26 68 26 65.75 28.875 C61.82786885 31.9057377 61.82786885 31.9057377 59 32 C58.01 31.34 57.02 30.68 56 30 C58.97 29.34 61.94 28.68 65 28 C65.0825 26.576875 65.165 25.15375 65.25 23.6875 C65.29640625 22.88699219 65.3428125 22.08648438 65.390625 21.26171875 C65.19502161 18.92597878 65.19502161 18.92597878 63.53857422 17.38623047 C59.75451601 15.31988285 56.23975026 15.55917604 51.9921875 15.55859375 C51.11152618 15.54538589 50.23086487 15.53217804 49.32351685 15.51856995 C46.50731317 15.47771502 43.69143247 15.45604183 40.875 15.4375 C38.08009377 15.41357266 35.28548547 15.38515613 32.49075317 15.34571838 C30.75442831 15.3217203 29.01794858 15.30657174 27.28146362 15.30210876 C17.68463005 15.1809974 8.14418055 14.14418055 1.0625 7.0625 C-0.22873317 4.55598856 -0.23184031 2.78208376 0 0 Z " fill="#1B8AF1" transform="translate(865,492)"/>
<path d="M0 0 C4.95 0 9.9 0 15 0 C15 21.45 15 42.9 15 65 C14.67 65 14.34 65 14 65 C14 44.21 14 23.42 14 2 C10.04 2 6.08 2 2 2 C2 23.45 2 44.9 2 67 C5.96 67 9.92 67 14 67 C14 67.33 14 67.66 14 68 C9.71 68 5.42 68 1 68 C0.67 45.56 0.34 23.12 0 0 Z " fill="#020721" transform="translate(624,466)"/>
<path d="M0 0 C1 3 1 3 0.1965332 5.65478516 C-2.35037349 8.37409 -2.89826658 8.37757029 -6.46801758 8.58349609 C-8.36028525 8.5894793 -10.25276867 8.56756304 -12.14453125 8.5234375 C-13.14707443 8.51873444 -14.14961761 8.51403137 -15.18254089 8.50918579 C-18.39322068 8.48780883 -21.60226096 8.43121462 -24.8125 8.375 C-26.96417707 8.35849469 -29.11587185 8.34414616 -31.26757812 8.33203125 C-48.2483851 8.18643177 -48.2483851 8.18643177 -54 7 C-54 6.34 -54 5.68 -54 5 C-53.36772995 4.99635437 -52.7354599 4.99270874 -52.08403015 4.98895264 C-45.51405845 4.9472013 -38.94479015 4.87790791 -32.37524414 4.79248047 C-29.92219064 4.76422285 -27.46904528 4.74303231 -25.01586914 4.72900391 C-21.49317221 4.70764128 -17.97158548 4.66102348 -14.44921875 4.609375 C-13.34913986 4.60814636 -12.24906097 4.60691772 -11.11564636 4.60565186 C-10.09481461 4.58593323 -9.07398285 4.5662146 -8.0222168 4.54589844 C-6.67319527 4.53257477 -6.67319527 4.53257477 -5.29692078 4.51898193 C-2.81814279 4.19281294 -2.81814279 4.19281294 -1.18611145 1.96588135 C-0.79469467 1.3171405 -0.40327789 0.66839966 0 0 Z " fill="#112751" transform="translate(324,528)"/>
<path d="M0 0 C0.66 0 1.32 0 2 0 C0.65867729 4.48857913 -1.13584887 8.23909077 -3.52734375 12.26171875 C-3.87254059 12.84627838 -4.21773743 13.43083801 -4.57339478 14.03311157 C-5.68963008 15.92100343 -6.81353647 17.80420105 -7.9375 19.6875 C-8.70693269 20.98619693 -9.47572808 22.28527165 -10.24389648 23.5847168 C-11.39770028 25.53625045 -12.55192122 27.48752286 -13.70832825 29.43751526 C-17.03098317 35.04067156 -20.30691285 40.67010902 -23.5625 46.3125 C-24.02068115 47.10551514 -24.4788623 47.89853027 -24.95092773 48.71557617 C-25.96806573 50.47660017 -26.98417738 52.23821692 -28 54 C-26.02 54 -24.04 54 -22 54 C-22 54.66 -22 55.32 -22 56 C-26.95 56.495 -26.95 56.495 -32 57 C-31.4492478 53.3251259 -30.5598406 50.97272754 -28.390625 47.96875 C-24.48977108 42.34296544 -21.13925104 36.4437413 -17.75 30.5 C-16.42871065 28.20033394 -15.10709516 25.90085523 -13.78515625 23.6015625 C-11.97639942 20.44906692 -10.16894607 17.29587027 -8.36669922 14.13964844 C-6.98017877 11.71425615 -5.58505336 9.29404549 -4.1875 6.875 C-3.78563477 6.16537109 -3.38376953 5.45574219 -2.96972656 4.72460938 C-2.036018 3.11578287 -1.02633072 1.55137992 0 0 Z " fill="#112247" transform="translate(368,479)"/>
<path d="M0 0 C2 1.375 2 1.375 4 4 C4.82627288 8.71134439 4.68490865 12.65872056 2.5 16.9375 C-4.16191928 22.4335834 -11.73626206 22.50650449 -20 22.6875 C-21.59134766 22.73874023 -21.59134766 22.73874023 -23.21484375 22.79101562 C-25.80979001 22.87283825 -28.40442636 22.94219995 -31 23 C-29.35 25.31 -27.7 27.62 -26 30 C-30.30714891 28.92321277 -31.28991322 28.04559112 -34.25 24.9375 C-34.95640625 24.20402344 -35.6628125 23.47054688 -36.390625 22.71484375 C-36.92171875 22.14894531 -37.4528125 21.58304687 -38 21 C-37.67 20.34 -37.34 19.68 -37 19 C-36.22398437 19.01047363 -35.44796875 19.02094727 -34.6484375 19.03173828 C-31.09899188 19.07356498 -27.54959833 19.09941072 -24 19.125 C-22.77925781 19.14175781 -21.55851563 19.15851563 -20.30078125 19.17578125 C-9.57571491 19.53769171 -9.57571491 19.53769171 0 15.4375 C2.02944199 10.49073516 1.42676341 5.06270886 0 0 Z " fill="#091A40" transform="translate(589,480)"/>
<path d="M0 0 C1.80642975 0.04645157 1.80642975 0.04645157 3.64935303 0.09384155 C5.50533112 0.10657608 5.50533112 0.10657608 7.39880371 0.11956787 C10.68094709 0.14745902 13.96131312 0.20131439 17.24285889 0.26779175 C20.59433612 0.32928488 23.94588977 0.35608523 27.29779053 0.3868103 C33.86879795 0.45298437 40.43861765 0.55340506 47.00872803 0.67977905 C47.00872803 1.00977905 47.00872803 1.33977905 47.00872803 1.67977905 C46.34331497 1.67454224 45.67790192 1.66930542 44.99232483 1.66390991 C38.06503667 1.61721499 31.13940779 1.6262307 24.21209717 1.66757202 C21.62714155 1.67568194 19.04210078 1.66959582 16.45721436 1.64901733 C12.74017483 1.62189087 9.02643104 1.64584991 5.30950928 1.67977905 C4.15413162 1.66036255 2.99875397 1.64094604 1.80836487 1.62094116 C0.18725044 1.65006592 0.18725044 1.65006592 -1.46661377 1.67977905 C-2.41481491 1.67977905 -3.36301605 1.67977905 -4.33995056 1.67977905 C-8.21213397 2.8341727 -8.21213397 2.8341727 -11.99127197 10.67977905 C8.13872803 10.67977905 28.26872803 10.67977905 49.00872803 10.67977905 C49.00872803 11.00977905 49.00872803 11.33977905 49.00872803 11.67977905 C28.21872803 11.67977905 7.42872803 11.67977905 -13.99127197 11.67977905 C-12.06669343 2.05688632 -9.50326005 -0.00384236 0 0 Z " fill="#0366E8" transform="translate(876.9912719726563,522.3202209472656)"/>
<path d="M0 0 C1.30270425 2.60540851 0.76121421 3.59358322 0.078125 6.39453125 C-1.1609552 12.19880845 -1.29662536 17.76996509 -1.25 23.6875 C-1.25773438 24.68072266 -1.26546875 25.67394531 -1.2734375 26.69726562 C-1.25076998 35.22592111 -0.27587566 42.70855145 6 49 C8.56566602 50.61841642 11.18568957 51.87567251 14 53 C14 53.33 14 53.66 14 54 C9.17414578 53.71044875 5.97946347 52.92484885 2.3515625 49.59765625 C-3.91297082 42.19247091 -4.21304089 34.05690838 -4.24023438 24.76806641 C-4.2498982 22.77103695 -4.28108516 20.77414948 -4.3125 18.77734375 C-4.36129182 6.7379628 -4.36129182 6.7379628 -1 1 C-0.67 0.67 -0.34 0.34 0 0 Z " fill="#102047" transform="translate(255,479)"/>
<path d="M0 0 C0.680625 0.71671875 1.36125 1.4334375 2.0625 2.171875 C5.12393886 5.22901409 8.49190814 7.73085767 12 10.25 C12.65210449 10.72018555 13.30420898 11.19037109 13.97607422 11.67480469 C15.32077421 12.64205075 16.66697021 13.60722038 18.01464844 14.5703125 C19.92304203 15.94458117 21.81044397 17.34371534 23.6953125 18.75 C24.83798331 19.58409879 25.98118641 20.41746901 27.125 21.25 C28.13820312 21.99765625 29.15140625 22.7453125 30.1953125 23.515625 C32.87403555 25.23344629 32.87403555 25.23344629 35.73046875 24.89453125 C38.82696944 23.67405163 40.0456553 21.62825667 42 19 C42.66 19 43.32 19 44 19 C42.22054913 23.04420651 39.60470327 26.46078487 37 30 C32.15288225 28.43372295 28.65016713 25.64640654 24.6875 22.5625 C18.310701 17.6780641 11.81453425 13.03746389 5.14135742 8.56665039 C2.16657581 6.55951845 -0.52151972 4.59221908 -3 2 C-2.01 1.34 -1.02 0.68 0 0 Z " fill="#1A5FDF" transform="translate(173,530)"/>
<path d="M0 0 C0.66 0 1.32 0 2 0 C3.29574871 2.22687976 4.58667308 4.45633175 5.875 6.6875 C6.23980469 7.31333984 6.60460937 7.93917969 6.98046875 8.58398438 C8.93741197 11.98194942 10.65607739 15.30067619 12 19 C7.92253393 17.64084464 7.42960469 15.70703144 5.375 12 C3.49255718 8.28283814 3.49255718 8.28283814 1 5 C-0.06728304 6.81244846 -1.13446233 8.62495809 -2.20117188 10.43774414 C-3.11172204 11.98434038 -4.02318665 13.53039859 -4.93554688 15.07592773 C-7.03468876 18.63622972 -9.1239621 22.19960581 -11.15234375 25.80078125 C-11.76207031 26.87714844 -12.37179687 27.95351563 -13 29.0625 C-13.53625 30.02285156 -14.0725 30.98320312 -14.625 31.97265625 C-15.07875 32.64167969 -15.5325 33.31070313 -16 34 C-16.66 34 -17.32 34 -18 34 C-16.57318337 29.0516785 -14.44102004 25.08106957 -11.75 20.75 C-11.35103516 20.09612305 -10.95207031 19.44224609 -10.54101562 18.76855469 C-9.36559214 16.8426394 -8.18330371 14.92108029 -7 13 C-5.82996073 11.08539029 -4.66272487 9.16906047 -3.5 7.25 C-2.80390625 6.11304688 -2.80390625 6.11304688 -2.09375 4.953125 C-0.86046395 2.89409056 -0.86046395 2.89409056 0 0 Z " fill="#102247" transform="translate(382,480)"/>
<path d="M0 0 C0.66 0.33 1.32 0.66 2 1 C8.08516056 1.23333287 8.08516056 1.23333287 14 0 C14.66 1.32 15.32 2.64 16 4 C11.05 4 6.1 4 1 4 C1.86625 5.423125 2.7325 6.84625 3.625 8.3125 C6.37568956 12.89052558 8.94767722 17.54290235 11.4765625 22.24609375 C13.50077659 25.90525 15.68499769 29.45672706 17.8984375 33.00390625 C19 35 19 35 19 37 C15.0175812 35.67252707 14.12838306 33.26570693 12.20703125 29.77734375 C11.85613937 29.15726944 11.5052475 28.53719513 11.14372253 27.89833069 C10.02463359 25.91612949 8.91848997 23.92703414 7.8125 21.9375 C7.05617995 20.59262543 6.29902845 19.24821808 5.54101562 17.90429688 C3.68431803 14.60820912 1.83919871 11.30588148 0 8 C-0.66 8 -1.32 8 -2 8 C-2.33 6.02 -2.66 4.04 -3 2 C-2.01 1.34 -1.02 0.68 0 0 Z " fill="#17284D" transform="translate(422,464)"/>
<path d="M0 0 C-3.88001251 8.57846516 -12.14145884 16.97308494 -20 22 C-26.08851355 23.71858716 -31.98902875 22.5489264 -38 21 C-38 20.34 -38 19.68 -38 19 C-35.39150143 18.08639543 -33.93760668 18.01183918 -31.1796875 18.53515625 C-27.13462552 19.18064486 -23.83296803 19.48886037 -20 18 C-13.79615885 13.40630638 -8.69788969 7.45990245 -3.65722656 1.65234375 C-2 0 -2 0 0 0 Z " fill="#0B1B3F" transform="translate(693,514)"/>
<path d="M0 0 C-3.69238197 1.23079399 -4.35376178 0.60259783 -7.8125 -0.9375 C-17.66791602 -4.6919442 -28.33060488 -4.13663963 -38 0 C-39.34814906 0.72302966 -40.68322671 1.47129218 -42 2.25 C-42.99 2.8275 -43.98 3.405 -45 4 C-45.66 3.67 -46.32 3.34 -47 3 C-32.13256212 -8.09671088 -15.89597448 -10.05977129 0 0 Z " fill="#1A63E5" transform="translate(179,460)"/>
<path d="M0 0 C0.4125 0.556875 0.825 1.11375 1.25 1.6875 C1.8275 2.450625 2.405 3.21375 3 4 C3.53625 4.845625 4.0725 5.69125 4.625 6.5625 C9.65816276 11.72811441 16.79349548 12.33641266 23.72816467 12.49235535 C24.64415939 12.49874527 25.56015411 12.50513519 26.50390625 12.51171875 C27.4677977 12.52966995 28.43168915 12.54762115 29.42478943 12.56611633 C32.47064988 12.61982853 35.51635721 12.65398881 38.5625 12.6875 C40.64129717 12.72070762 42.72007424 12.75520042 44.79882812 12.79101562 C49.8657742 12.87553221 54.93267794 12.94252865 60 13 C60 13.33 60 13.66 60 14 C53.47140943 14.10194511 46.94302636 14.17169296 40.41381836 14.21972656 C38.19564137 14.239764 35.97751668 14.26700173 33.75952148 14.30175781 C30.55960128 14.35062253 27.36038326 14.37304812 24.16015625 14.390625 C23.17854019 14.41127014 22.19692413 14.43191528 21.18556213 14.45318604 C13.48909318 14.45565897 7.12761818 12.97505144 1.4375 7.5625 C-0.1397724 4.7508405 -0.36235628 3.17061742 0 0 Z " fill="#0666E7" transform="translate(865,492)"/>
<path d="M0 0 C-3.00701788 1.69096934 -6.07089246 2.65533467 -9.38012695 3.59667969 C-22.84475651 7.46334677 -33.52403048 13.74167824 -44 23 C-44 20 -44 20 -42.56640625 18.3515625 C-37.69499631 14.15436329 -32.74583487 10.88621798 -27 8 C-27 7.34 -27 6.68 -27 6 C-26.32710937 5.88785156 -25.65421875 5.77570313 -24.9609375 5.66015625 C-20.75034264 4.72138246 -16.74448107 3.21938174 -12.703125 1.72851562 C-8.32730009 0.19697691 -4.6196794 -0.23277454 0 0 Z " fill="#1E68E3" transform="translate(140,410)"/>
<path d="M0 0 C2.60478883 -0.0809313 5.20706653 -0.14045434 7.8125 -0.1875 C8.55048828 -0.21263672 9.28847656 -0.23777344 10.04882812 -0.26367188 C15.56382001 -0.33853602 15.56382001 -0.33853602 17.53881836 1.19433594 C20.81267521 5.24002437 23.18390607 9.92614132 25.75 14.4375 C26.67232422 16.01241211 26.67232422 16.01241211 27.61328125 17.61914062 C28.18949219 18.63041016 28.76570313 19.64167969 29.359375 20.68359375 C29.89014648 21.60712646 30.42091797 22.53065918 30.96777344 23.48217773 C32.09655728 26.23552395 32.08347214 27.2829669 31 30 C30.62190186 29.3294458 30.24380371 28.6588916 29.85424805 27.96801758 C28.13269816 24.91578326 26.41010942 21.86413646 24.6875 18.8125 C24.09259766 17.75740234 23.49769531 16.70230469 22.88476562 15.61523438 C22.30791016 14.59365234 21.73105469 13.57207031 21.13671875 12.51953125 C20.60780029 11.58214111 20.07888184 10.64475098 19.53393555 9.67895508 C19.02773682 8.7948999 18.52153809 7.91084473 18 7 C17.51402344 6.07574219 17.02804687 5.15148437 16.52734375 4.19921875 C15.09139005 1.58783621 15.09139005 1.58783621 11.42578125 1.29296875 C10.05553137 1.23339267 8.68399597 1.19902518 7.3125 1.1875 C6.61060547 1.16236328 5.90871094 1.13722656 5.18554688 1.11132812 C3.45763219 1.05255552 1.7287557 1.0233903 0 1 C0 0.67 0 0.34 0 0 Z " fill="#0D1B3E" transform="translate(421,467)"/>
<path d="M0 0 C-0.25 1.875 -0.25 1.875 -1 4 C-2.31403276 4.70394612 -3.6520257 5.36345658 -5 6 C-5.86625 6.86625 -6.7325 7.7325 -7.625 8.625 C-8.40875 9.40875 -9.1925 10.1925 -10 11 C-10.66 11 -11.32 11 -12 11 C-10.61410019 7.90837736 -9.50816459 6.50816459 -7 4 C-11.62 4 -16.24 4 -21 4 C-21 3.01 -21 2.02 -21 1 C-17.1942568 0.36570947 -13.6107815 -0.05719676 -9.75 0 C0 0 0 0 0 0 Z " fill="#091539" transform="translate(742,465)"/>
<path d="M0 0 C0.33 0 0.66 0 1 0 C2.92956495 13.60247764 2.92956495 13.60247764 0.0625 18.5625 C-3.54110499 23.26636534 -8.44197732 26.14732577 -14 28 C-15.72795352 28.06802967 -17.45835365 28.08495645 -19.1875 28.0625 C-20.53908203 28.04896484 -20.53908203 28.04896484 -21.91796875 28.03515625 C-22.60503906 28.02355469 -23.29210937 28.01195312 -24 28 C-24 27.67 -24 27.34 -24 27 C-23.13117187 26.82984375 -22.26234375 26.6596875 -21.3671875 26.484375 C-10.7893052 24.4519781 -10.7893052 24.4519781 -3.1875 17.375 C-2.795625 16.59125 -2.40375 15.8075 -2 15 C-1.67 14.34 -1.34 13.68 -1 13 C-0.77049681 10.795636 -0.58924067 8.58607827 -0.4375 6.375 C-0.35371094 5.18648438 -0.26992188 3.99796875 -0.18359375 2.7734375 C-0.09271484 1.40058594 -0.09271484 1.40058594 0 0 Z " fill="#0D1D41" transform="translate(605,482)"/>
<path d="M0 0 C4.17917653 0.51182223 6.10710028 2.76149845 8.984375 5.69140625 C9.67506073 6.38845924 9.67506073 6.38845924 10.37969971 7.09959412 C11.84367811 8.58031819 13.29686041 10.07114519 14.75 11.5625 C15.74279449 12.57034664 16.7362767 13.57751633 17.73046875 14.58398438 C20.16166473 17.04819461 22.58328868 19.52157329 25 22 C24.67 22.66 24.34 23.32 24 24 C23.34 24 22.68 24 22 24 C20.80078125 22.77734375 20.80078125 22.77734375 19.3125 20.9375 C14.84759729 15.65212371 9.91207838 10.86063833 4.97973633 6.01733398 C4.3380249 5.38384033 3.69631348 4.75034668 3.03515625 4.09765625 C2.4512915 3.52539307 1.86742676 2.95312988 1.26586914 2.36352539 C0 1 0 1 0 0 Z " fill="#0F2451" transform="translate(714,507)"/>
<path d="M0 0 C3.37722831 0.60202154 5.26334048 1.77538085 7.86328125 3.984375 C8.58580078 4.59023438 9.30832031 5.19609375 10.05273438 5.8203125 C10.79845703 6.45710937 11.54417969 7.09390625 12.3125 7.75 C17.4090903 12.06353209 22.5075732 16.19810879 28 20 C27.01 20.99 26.02 21.98 25 23 C23.59501347 21.59501347 22.20143148 20.17857443 20.81640625 18.75390625 C17.64542904 15.65329746 14.32647112 12.79458594 10.9375 9.9375 C7.15358954 6.74370413 3.4369517 3.57408693 0 0 Z " fill="#1A60E0" transform="translate(171,544)"/>
<path d="M0 0 C3.16980784 1.38961801 5.1851351 2.98797455 7.53125 5.51953125 C8.17707031 6.21240234 8.82289063 6.90527344 9.48828125 7.61914062 C10.15214844 8.34294922 10.81601562 9.06675781 11.5 9.8125 C12.16386719 10.52470703 12.82773437 11.23691406 13.51171875 11.97070312 C16.82207826 15.54205904 20.02612021 19.13850814 23 23 C19.35818477 22.42667654 17.71572695 21.06870972 15.1875 18.4375 C14.49527344 17.72078125 13.80304687 17.0040625 13.08984375 16.265625 C10.53181823 13.49243845 8.05986632 10.65658761 5.640625 7.76171875 C3.369361 5.32281383 0.97924654 3.48962327 -2 2 C-1.34 1.34 -0.68 0.68 0 0 Z " fill="#132851" transform="translate(698,507)"/>
<path d="M0 0 C4.56263526 4.10170187 7.19611755 9.82162405 10.25 15.0625 C10.91257812 16.17689453 11.57515625 17.29128906 12.2578125 18.43945312 C12.87914062 19.50228516 13.50046875 20.56511719 14.140625 21.66015625 C14.71329102 22.63605713 15.28595703 23.61195801 15.87597656 24.61743164 C16.2469043 25.4036792 16.61783203 26.18992676 17 27 C16.67 27.66 16.34 28.32 16 29 C11.84312526 23.88384648 8.4386565 18.53047719 5.1875 12.8125 C4.79054932 12.12349609 4.39359863 11.43449219 3.98461914 10.72460938 C1.99367942 7.16717676 0.48749725 4.11575549 0 0 Z " fill="#0D1B3D" transform="translate(442,503)"/>
<path d="M0 0 C2 1.375 2 1.375 4 4 C4.84961779 8.84445531 4.74525665 12.72241718 2.25 17 C-1.25313539 20.11389812 -3.9268125 21.281426 -8.625 21.25 C-9.40101563 21.25515625 -10.17703125 21.2603125 -10.9765625 21.265625 C-13 21 -13 21 -15 19 C-14.26394531 18.98582031 -13.52789063 18.97164063 -12.76953125 18.95703125 C-8.08153777 18.72789551 -4.84319789 18.52906534 -0.8125 16 C1.99477032 11.3534836 1.67092732 6.91903451 0.4765625 1.72265625 C0.31929687 1.15417969 0.16203125 0.58570313 0 0 Z " fill="#12254B" transform="translate(589,480)"/>
<path d="M0 0 C0.33 0 0.66 0 1 0 C1.33 9.9 1.66 19.8 2 30 C-1.10042499 26.89957501 -1.12748827 24.18636946 -1.1328125 20 C-1.13410156 19.030625 -1.13539063 18.06125 -1.13671875 17.0625 C-1.13285156 16.051875 -1.12898438 15.04125 -1.125 14 C-1.12886719 12.989375 -1.13273437 11.97875 -1.13671875 10.9375 C-1.13542969 9.968125 -1.13414062 8.99875 -1.1328125 8 C-1.13168457 7.113125 -1.13055664 6.22625 -1.12939453 5.3125 C-1 3 -1 3 0 0 Z " fill="#09173C" transform="translate(266,487)"/>
<path d="M0 0 C3.06182831 0.61644131 5.22970415 1.60848563 7.828125 3.328125 C8.90513672 4.03388672 8.90513672 4.03388672 10.00390625 4.75390625 C10.74511719 5.24761719 11.48632812 5.74132812 12.25 6.25 C13.71313376 7.21416097 15.176674 8.17770536 16.640625 9.140625 C17.35669922 9.61306641 18.07277344 10.08550781 18.81054688 10.57226562 C22.17504863 12.76624491 25.58353313 14.88812847 29 17 C28.34 17.66 27.68 18.32 27 19 C26.05640625 18.3709375 25.1128125 17.741875 24.140625 17.09375 C23.52453369 16.68310303 22.90844238 16.27245605 22.27368164 15.84936523 C20.91840092 14.94568125 19.56342302 14.04154297 18.20874023 13.13696289 C14.92335143 10.94399393 11.63489947 8.75641657 8.33203125 6.58984375 C7.25308594 5.87957031 6.17414063 5.16929687 5.0625 4.4375 C4.08410156 3.79683594 3.10570312 3.15617188 2.09765625 2.49609375 C1.40542969 2.00238281 0.71320313 1.50867188 0 1 C0 0.67 0 0.34 0 0 Z " fill="#1965E2" transform="translate(200,518)"/>
<path d="M0 0 C0.99 0.33 1.98 0.66 3 1 C-2.61 6.61 -8.22 12.22 -14 18 C-14.33 17.01 -14.66 16.02 -15 15 C-10.05 10.05 -5.1 5.1 0 0 Z " fill="#0F234A" transform="translate(686,502)"/>
<path d="M0 0 C1.32 0.33 2.64 0.66 4 1 C4 1.66 4 2.32 4 3 C4.5775 3.28875 5.155 3.5775 5.75 3.875 C8.875 5.4375 8.875 5.4375 12 7 C14.31 5.35 16.62 3.7 19 2 C19.66 2.33 20.32 2.66 21 3 C19.37982158 4.33918806 17.75370657 5.6711969 16.125 7 C15.22007812 7.7425 14.31515625 8.485 13.3828125 9.25 C11 11 11 11 9 11 C7.34375 9.35546875 7.34375 9.35546875 5.5 7.1875 C4.8915625 6.47980469 4.283125 5.77210938 3.65625 5.04296875 C2 3 2 3 0 0 Z " fill="#1F67E4" transform="translate(180,462)"/>
<path d="M0 0 C-0.79664063 0.32871094 -0.79664063 0.32871094 -1.609375 0.6640625 C-6.66291215 2.93262115 -9.58487105 4.7981838 -12 10 C-12.88503406 13.97756689 -13.50279109 17.9569065 -14 22 C-16.50503492 18.24244762 -16.14575894 16.58588939 -15.53125 12.27734375 C-14.17403786 6.45929466 -10.36513308 3.19181481 -5.78125 -0.21484375 C-3.48789663 -1.22572978 -2.31559709 -0.81756827 0 0 Z " fill="#117DEC" transform="translate(879,469)"/>
<path d="M0 0 C9.9 0 19.8 0 30 0 C29.34 1.32 28.68 2.64 28 4 C27.01 4 26.02 4 25 4 C25.33 3.34 25.66 2.68 26 2 C13.13 1.505 13.13 1.505 0 1 C0 0.67 0 0.34 0 0 Z " fill="#213B67" transform="translate(300,522)"/>
<path d="M0 0 C2.97 1.98 5.94 3.96 9 6 C8.01 6.495 8.01 6.495 7 7 C5.0546875 6.22265625 5.0546875 6.22265625 2.875 5.0625 C2.15054688 4.68222656 1.42609375 4.30195312 0.6796875 3.91015625 C0.12539062 3.60980469 -0.42890625 3.30945313 -1 3 C-1.25523437 3.59296875 -1.51046875 4.1859375 -1.7734375 4.796875 C-3.11816498 7.21224538 -4.49214367 8.51211706 -6.625 10.25 C-7.25664062 10.77078125 -7.88828125 11.2915625 -8.5390625 11.828125 C-9.02117187 12.21484375 -9.50328125 12.6015625 -10 13 C-8.05276835 7.14805646 -4.40895709 4.19562046 0 0 Z " fill="#206BE7" transform="translate(190,510)"/>
<path d="M0 0 C0.66 0 1.32 0 2 0 C0.39907509 6.258161 -2.45711492 9.3968768 -7.875 12.8125 C-11.44169076 14.16784249 -14.21529896 14.22708206 -18 14 C-18 13.67 -18 13.34 -18 13 C-17.40832031 12.81824219 -16.81664062 12.63648438 -16.20703125 12.44921875 C-7.29791951 9.63170783 -7.29791951 9.63170783 -1 3 C-0.67 2.01 -0.34 1.02 0 0 Z " fill="#1373E7" transform="translate(944,520)"/>
<path d="M0 0 C0.4125 0.556875 0.825 1.11375 1.25 1.6875 C1.8275 2.450625 2.405 3.21375 3 4 C3.515625 4.825 4.03125 5.65 4.5625 6.5 C8.09453549 10.1226005 12.27601187 11.38627123 17 13 C12.63197802 14.52880769 10.14028002 13.16136159 6.12890625 11.23828125 C3.25051018 9.56405821 1.62839621 7.90279324 0 5 C-0.25 2.1875 -0.25 2.1875 0 0 Z " fill="#0F77E9" transform="translate(865,492)"/>
<path d="M0 0 C0.33 0 0.66 0 1 0 C1.11701204 3.68722927 1.18752045 7.37397542 1.25 11.0625 C1.28351562 12.10083984 1.31703125 13.13917969 1.3515625 14.20898438 C1.43453319 20.74292593 0.84691683 24.661267 -3 30 C-3.66 30 -4.32 30 -5 30 C-4.71125 29.443125 -4.4225 28.88625 -4.125 28.3125 C-2.08015323 24.10920386 -0.75915385 20.62367971 -0.5859375 15.91796875 C-0.52792969 14.52094727 -0.52792969 14.52094727 -0.46875 13.09570312 C-0.42234375 11.65614258 -0.42234375 11.65614258 -0.375 10.1875 C-0.33632813 9.20845703 -0.29765625 8.22941406 -0.2578125 7.22070312 C-0.16389184 4.81398626 -0.07821799 2.40726988 0 0 Z " fill="#096EEC" transform="translate(835,490)"/>
<path d="M0 0 C0.99 0.495 0.99 0.495 2 1 C4.87910588 1.23274209 7.74146495 1.41972757 10.625 1.5625 C11.42679688 1.60568359 12.22859375 1.64886719 13.0546875 1.69335938 C15.0362511 1.79951457 17.01810271 1.90026855 19 2 C19 2.33 19 2.66 19 3 C17.62714844 3.03867187 17.62714844 3.03867187 16.2265625 3.078125 C14.44378906 3.16320312 14.44378906 3.16320312 12.625 3.25 C11.44164062 3.29640625 10.25828125 3.3428125 9.0390625 3.390625 C5.88708247 3.65648799 5.88708247 3.65648799 4.5859375 6.046875 C4.39257812 6.69140625 4.19921875 7.3359375 4 8 C2 6.25 2 6.25 0 4 C0 2.68 0 1.36 0 0 Z " fill="#172A51" transform="translate(658,464)"/>
<path d="M0 0 C0.99 0.33 1.98 0.66 3 1 C1.37660195 2.70884005 -0.29319053 4.37446717 -2 6 C-2.66 6 -3.32 6 -4 6 C-3.67 7.65 -3.34 9.3 -3 11 C-4.98 11 -6.96 11 -9 11 C-7.59155282 7.78475695 -5.89655214 5.67816132 -3.375 3.25 C-2.74335937 2.63640625 -2.11171875 2.0228125 -1.4609375 1.390625 C-0.73777344 0.70226562 -0.73777344 0.70226562 0 0 Z " fill="#132C5A" transform="translate(666,522)"/>
<path d="M0 0 C0.99 0 1.98 0 3 0 C1.86535866 3.30077482 0.36542129 6.29755482 -1.375 9.3125 C-1.77460938 10.00988281 -2.17421875 10.70726562 -2.5859375 11.42578125 C-3.05257813 11.94527344 -3.51921875 12.46476562 -4 13 C-5.32 13 -6.64 13 -8 13 C-8 12.01 -8 11.02 -8 10 C-7.401875 9.938125 -6.80375 9.87625 -6.1875 9.8125 C-3.06907553 8.65422805 -2.43175258 6.93168385 -1 4 C-0.30420546 1.80869466 -0.30420546 1.80869466 0 0 Z " fill="#112449" transform="translate(328,467)"/>
<path d="M0 0 C0.33 0.99 0.66 1.98 1 3 C0.34 4.32 -0.32 5.64 -1 7 C-5.62 7 -10.24 7 -15 7 C-15 6.67 -15 6.34 -15 6 C-12.69 6 -10.38 6 -8 6 C-8 5.34 -8 4.68 -8 4 C-6.865625 3.71125 -5.73125 3.4225 -4.5625 3.125 C-3.386875 2.75375 -2.21125 2.3825 -1 2 C-0.67 1.34 -0.34 0.68 0 0 Z " fill="#172D55" transform="translate(354,529)"/>
<path d="M0 0 C-0.33 1.32 -0.66 2.64 -1 4 C-1.99 3.34 -2.98 2.68 -4 2 C-5.93137682 1.72643157 -5.93137682 1.72643157 -8.01171875 1.8046875 C-8.76904297 1.81113281 -9.52636719 1.81757813 -10.30664062 1.82421875 C-11.09232422 1.84097656 -11.87800781 1.85773438 -12.6875 1.875 C-13.48478516 1.88402344 -14.28207031 1.89304687 -15.10351562 1.90234375 C-17.069139 1.92588415 -19.03460775 1.96175453 -21 2 C-17.49081164 -0.33945891 -16.12601003 -0.18890962 -12 -0.0625 C-7.78340768 0.05635003 -3.86080857 -1.28693619 0 0 Z " fill="#294979" transform="translate(742,465)"/>
<path d="M0 0 C5.21979128 -0.1799928 9.07262981 0.02905192 14 2 C14.33 1.34 14.66 0.68 15 0 C15.33 0.99 15.66 1.98 16 3 C11.05 3 6.1 3 1 3 C0.67 2.01 0.34 1.02 0 0 Z " fill="#1B3765" transform="translate(592,533)"/>
<path d="M0 0 C3.82352106 1.5577308 6.29205593 3.91595258 9 7 C9 7.99 9 8.98 9 10 C8.34 10 7.68 10 7 10 C5.39771617 8.29059971 3.98705258 6.46698472 2.53515625 4.62890625 C0.99243114 2.73441742 0.99243114 2.73441742 -2 2 C-1.34 1.34 -0.68 0.68 0 0 Z " fill="#0B1E48" transform="translate(698,507)"/>
<path d="M0 0 C3.37244652 3.99697365 6.71374722 8.27090179 9 13 C8.67 13.66 8.34 14.32 8 15 C5.52733876 12.73762373 3.936134 10.42546667 2.3125 7.5 C1.65701172 6.33984375 1.65701172 6.33984375 0.98828125 5.15625 C0 3 0 3 0 0 Z " fill="#0B193C" transform="translate(385,484)"/>
<path d="M0 0 C0 0.33 0 0.66 0 1 C-1.6396875 1.37125 -1.6396875 1.37125 -3.3125 1.75 C-7.12521564 3.04244598 -8.20647966 3.51259934 -10 7 C-10.71433121 9.64934822 -10.71433121 9.64934822 -11 12 C-12.25 10.4375 -12.25 10.4375 -13 8 C-11.38566553 4.39879234 -10.17220575 1.90751413 -7.0625 -0.5 C-4.43928996 -1.13592971 -2.57635055 -0.71565293 0 0 Z " fill="#152C55" transform="translate(279,479)"/>
<path d="M0 0 C0.8971875 0.309375 0.8971875 0.309375 1.8125 0.625 C0.87277344 1.23988281 0.87277344 1.23988281 -0.0859375 1.8671875 C-0.90320313 2.40601563 -1.72046875 2.94484375 -2.5625 3.5 C-3.78066406 4.30050781 -3.78066406 4.30050781 -5.0234375 5.1171875 C-7.26344096 6.58365055 -7.26344096 6.58365055 -9.1875 8.625 C-9.5175 7.965 -9.8475 7.305 -10.1875 6.625 C-3.20231959 -0.54896907 -3.20231959 -0.54896907 0 0 Z " fill="#112550" transform="translate(266.1875,469.375)"/>
<path d="M0 0 C-1.38188453 3.21043882 -2.92421903 5.04936365 -5.625 7.25 C-6.57246094 8.03117188 -6.57246094 8.03117188 -7.5390625 8.828125 C-8.02117188 9.21484375 -8.50328125 9.6015625 -9 10 C-8.42110619 6.71245489 -7.45171589 5.06327505 -5.0625 2.75 C-4.53785156 2.22921875 -4.01320313 1.7084375 -3.47265625 1.171875 C-2 0 -2 0 0 0 Z " fill="#122751" transform="translate(693,514)"/>
<path d="M0 0 C0 4.71449589 -3.07505492 7.049362 -6.25 10.3125 C-6.8275 10.869375 -7.405 11.42625 -8 12 C-8.99 11.67 -9.98 11.34 -11 11 C-7.37 7.37 -3.74 3.74 0 0 Z " fill="#0D1D3F" transform="translate(725,480)"/>
<path d="M0 0 C0.33 0.99 0.66 1.98 1 3 C0.09972412 4.03531726 -0.82093035 5.05294165 -1.75 6.0625 C-2.51570312 6.91521484 -2.51570312 6.91521484 -3.296875 7.78515625 C-5 9 -5 9 -7.203125 8.68359375 C-7.79609375 8.45800781 -8.3890625 8.23242188 -9 8 C-8.43410156 7.50628906 -7.86820313 7.01257813 -7.28515625 6.50390625 C-6.55167969 5.86324219 -5.81820312 5.22257812 -5.0625 4.5625 C-4.33160156 3.92441406 -3.60070312 3.28632813 -2.84765625 2.62890625 C-1.87860647 1.77458541 -0.91348825 0.91348825 0 0 Z " fill="#142B54" transform="translate(707,481)"/>
<path d="M0 0 C0.66 0.33 1.32 0.66 2 1 C4.29924497 1.27024708 6.59801487 1.44497841 8.90625 1.62109375 C11 2 11 2 13 4 C7.72 3.67 2.44 3.34 -3 3 C-3 2.34 -3 1.68 -3 1 C-2.01 0.67 -1.02 0.34 0 0 Z " fill="#102449" transform="translate(658,532)"/>
<path d="M0 0 C2.16874252 0.50603992 3.99967627 0.99983813 6 2 C6 2.99 6 3.98 6 5 C4.35 5 2.7 5 1 5 C0.67 3.35 0.34 1.7 0 0 Z " fill="#0A1F44" transform="translate(600,530)"/>
<path d="M0 0 C2.4375 1.3125 2.4375 1.3125 3.25 3.4375 C3.311875 4.05625 3.37375 4.675 3.4375 5.3125 C2.86 5.003125 2.2825 4.69375 1.6875 4.375 C-0.40544184 3.38666636 -2.30785275 2.7956387 -4.5625 2.3125 C-4.5625 1.6525 -4.5625 0.9925 -4.5625 0.3125 C-2.5625 -0.6875 -2.5625 -0.6875 0 0 Z " fill="#112E61" transform="translate(740.5625,530.6875)"/>
<path d="M0 0 C0.66 0 1.32 0 2 0 C0.78065514 4.03321763 -0.55954927 7.54269479 -3 11 C-3.66 11 -4.32 11 -5 11 C-3.78065514 6.96678237 -2.44045073 3.45730521 0 0 Z " fill="#0E1E41" transform="translate(362,515)"/>
<path d="M0 0 C2 1.375 2 1.375 4 3 C4 3.66 4 4.32 4 5 C4.66 5 5.32 5 6 5 C7.625 7.5 7.625 7.5 9 10 C5.17647894 8.4422692 2.70794407 6.08404742 0 3 C0 2.01 0 1.02 0 0 Z " fill="#0C1D42" transform="translate(673,480)"/>
<path d="M0 0 C4.24822374 0.47202486 6.19989709 2.96655518 9 6 C8.67 6.66 8.34 7.32 8 8 C6.66372225 6.85760183 5.33104612 5.71098945 4 4.5625 C3.2575 3.92441406 2.515 3.28632812 1.75 2.62890625 C1.1725 2.09136719 0.595 1.55382812 0 1 C0 0.67 0 0.34 0 0 Z " fill="#0E1E44" transform="translate(589,520)"/>
<path d="M0 0 C2.96865509 2.54456151 4.3619751 5.48994665 6 9 C5.34 9.66 4.68 10.32 4 11 C0 4.5 0 4.5 0 0 Z " fill="#102248" transform="translate(442,503)"/>
<path d="M0 0 C3.93673644 1.31224548 6.22719294 2.91910327 9 6 C8.67 6.99 8.34 7.98 8 9 C6.66079162 7.88200014 5.32877444 6.75538103 4 5.625 C2.88625 4.68527344 2.88625 4.68527344 1.75 3.7265625 C1.1725 3.15679688 0.595 2.58703125 0 2 C0 1.34 0 0.68 0 0 Z " fill="#0D2049" transform="translate(579,510)"/>
<path d="M0 0 C0.66 0 1.32 0 2 0 C6 6.75 6 6.75 6 9 C3 8 3 8 1.3125 5.0625 C0 2 0 2 0 0 Z " fill="#0E1B3C" transform="translate(403,516)"/>
<path d="M0 0 C3 1 3 1 4.75 3.3125 C6.14972335 6.32190521 5.95287489 6.98041673 5 10 C4.16121545 8.71186658 3.32913217 7.41936744 2.5 6.125 C2.0359375 5.40570313 1.571875 4.68640625 1.09375 3.9453125 C0 2 0 2 0 0 Z " fill="#0D1E41" transform="translate(401,487)"/>
<path d="M0 0 C3.65316671 1.24976756 4.78065836 1.67098753 7 5 C7.125 7.6875 7.125 7.6875 7 10 C4.51137122 6.76478258 2.24578442 3.40739705 0 0 Z " fill="#0D1B3D" transform="translate(598,471)"/>
<path d="M0 0 C-0.33 0.66 -0.66 1.32 -1 2 C-4.3 2 -7.6 2 -11 2 C-7.06425135 -0.62383243 -4.54354105 -1.51451368 0 0 Z " fill="#1C355F" transform="translate(431,534)"/>
<path d="M0 0 C2.64 0.33 5.28 0.66 8 1 C8 1.66 8 2.32 8 3 C5.03 3 2.06 3 -1 3 C-0.67 2.01 -0.34 1.02 0 0 Z " fill="#031031" transform="translate(338,532)"/>
<path d="M0 0 C0.66 0 1.32 0 2 0 C0.7508258 3.45925163 -0.67527795 6.14693203 -3 9 C-3.66 8.67 -4.32 8.34 -5 8 C-4.21718695 6.66144944 -3.42348123 5.32926356 -2.625 4 C-2.18414063 3.2575 -1.74328125 2.515 -1.2890625 1.75 C-0.86367188 1.1725 -0.43828125 0.595 0 0 Z " fill="#127CEB" transform="translate(868,523)"/>
<path d="M0 0 C0.66 0 1.32 0 2 0 C1.42647107 3.87132028 -0.48704352 6.08172796 -3 9 C-2.5020163 5.26512223 -2.12508244 3.18762365 0 0 Z " fill="#0F2046" transform="translate(374,469)"/>
<path d="M0 0 C0.99 0.33 1.98 0.66 3 1 C4.1875 3.5625 4.1875 3.5625 5 6 C4.34 6.66 3.68 7.32 3 8 C1.49440461 6.03617993 0.10868317 4.21736634 -1 2 C-0.67 1.34 -0.34 0.68 0 0 Z " fill="#14274C" transform="translate(421,468)"/>
<path d="M0 0 C0.66 0 1.32 0 2 0 C0.90931332 3.77545388 0.0916909 6.47043472 -3 9 C-2.5020163 5.26512223 -2.12508244 3.18762365 0 0 Z " fill="#0C1D42" transform="translate(471,510)"/>
<path d="M0 0 C3.36720387 1.39332574 4.9859524 2.9789286 7 6 C4 6 4 6 1.8125 4.125 C0 2 0 2 0 0 Z " fill="#11254E" transform="translate(679,470)"/>
<path d="M0 0 C2.99693138 0.99897713 4.02709413 1.65130253 6 4 C6 4.66 6 5.32 6 6 C3.13275314 5.42655063 2.1385485 5.1385485 0 3 C0 2.01 0 1.02 0 0 Z " fill="#122144" transform="translate(579,526)"/>
<path d="M0 0 C3.36720387 1.39332574 4.9859524 2.9789286 7 6 C3.75728494 5.4409112 2.06942576 4.5867822 0 2 C0 1.34 0 0.68 0 0 Z " fill="#122347" transform="translate(556,504)"/>
<path d="M0 0 C0.928125 0.20625 1.85625 0.4125 2.8125 0.625 C2.8125 0.955 2.8125 1.285 2.8125 1.625 C1.719375 1.934375 0.62625 2.24375 -0.5 2.5625 C-2.74157994 3.20837897 -4.9744351 3.8873117 -7.1875 4.625 C-5.78075725 0.40477175 -4.42930454 -0.52109465 0 0 Z " fill="#1389F4" transform="translate(886.1875,477.375)"/>
<path d="" fill="#264C81" transform="translate(0,0)"/>
<path d="M0 0 C3 1 3 1 3 1 Z " fill="#279DF8" transform="translate(900,479)"/>
<path d="M0 0 C3 1 3 1 3 1 Z " fill="#329DEF" transform="translate(804,464)"/>
<path d="M0 0 C3 1 3 1 3 1 Z " fill="#335282" transform="translate(632,464)"/>
<path d="" fill="#2B4C7C" transform="translate(0,0)"/>
<path d="M0 0 C2 1 2 1 2 1 Z " fill="#284F82" transform="translate(304,520)"/>
<path d="M0 0 C2 1 2 1 2 1 Z " fill="#26477B" transform="translate(277,520)"/>
<path d="" fill="#2B4B7D" transform="translate(0,0)"/>
<path d="" fill="#2999F4" transform="translate(0,0)"/>
<path d="" fill="#2B4A7C" transform="translate(0,0)"/>
<path d="" fill="#28497D" transform="translate(0,0)"/>
<path d="" fill="#2699F7" transform="translate(0,0)"/>
<path d="" fill="#305A97" transform="translate(0,0)"/>
<path d="" fill="#2C4C7E" transform="translate(0,0)"/>
<path d="" fill="#2B4B7F" transform="translate(0,0)"/>
<path d="" fill="#2F4D7E" transform="translate(0,0)"/>
<path d="" fill="#304F7E" transform="translate(0,0)"/>
<path d="M0 0 C2 1 2 1 2 1 Z " fill="#339DEF" transform="translate(909,464)"/>
<path d="M0 0 C2 1 2 1 2 1 Z " fill="#3C89EB" transform="translate(173,408)"/>
<path d="" fill="#3279E3" transform="translate(0,0)"/>
<path d="" fill="#3274E1" transform="translate(0,0)"/>
<path d="" fill="#3985F0" transform="translate(0,0)"/>
<path d="" fill="#3878D4" transform="translate(0,0)"/>
<path d="" fill="#3681F0" transform="translate(0,0)"/>
<path d="" fill="#2A5088" transform="translate(0,0)"/>
<path d="" fill="#2A4C80" transform="translate(0,0)"/>
<path d="" fill="#2A5189" transform="translate(0,0)"/>
<path d="" fill="#2E4B79" transform="translate(0,0)"/>
<path d="" fill="#3274E0" transform="translate(0,0)"/>
<path d="" fill="#2A85E0" transform="translate(0,0)"/>
<path d="" fill="#3491E1" transform="translate(0,0)"/>
<path d="" fill="#294C7C" transform="translate(0,0)"/>
<path d="" fill="#3273E0" transform="translate(0,0)"/>
<path d="" fill="#326AB3" transform="translate(0,0)"/>
<path d="" fill="#2D4A77" transform="translate(0,0)"/>
<path d="" fill="#24477B" transform="translate(0,0)"/>
<path d="" fill="#3A88F6" transform="translate(0,0)"/>
<path d="" fill="#2A4A7D" transform="translate(0,0)"/>
<path d="" fill="#2A4C80" transform="translate(0,0)"/>
<path d="" fill="#29487C" transform="translate(0,0)"/>
<path d="" fill="#2D4E80" transform="translate(0,0)"/>
<path d="" fill="#2B4D7E" transform="translate(0,0)"/>
<path d="" fill="#2D477B" transform="translate(0,0)"/>
<path d="" fill="#2C4C7B" transform="translate(0,0)"/>
<path d="" fill="#27487E" transform="translate(0,0)"/>
<path d="" fill="#284A7D" transform="translate(0,0)"/>
<path d="" fill="#29487C" transform="translate(0,0)"/>
<path d="" fill="#29497C" transform="translate(0,0)"/>
<path d="" fill="#284E81" transform="translate(0,0)"/>
<path d="" fill="#294D7F" transform="translate(0,0)"/>
<path d="" fill="#2B5086" transform="translate(0,0)"/>
<path d="" fill="#2D4C7C" transform="translate(0,0)"/>
<path d="" fill="#274A7F" transform="translate(0,0)"/>
<path d="" fill="#27487D" transform="translate(0,0)"/>
<path d="" fill="#3685F4" transform="translate(0,0)"/>
<path d="" fill="#2B96F2" transform="translate(0,0)"/>
<path d="" fill="#254A7D" transform="translate(0,0)"/>
<path d="" fill="#255695" transform="translate(0,0)"/>
<path d="" fill="#284B80" transform="translate(0,0)"/>
<path d="" fill="#23467C" transform="translate(0,0)"/>
<path d="" fill="#244779" transform="translate(0,0)"/>
<path d="" fill="#2F5B9A" transform="translate(0,0)"/>
<path d="" fill="#3988EB" transform="translate(0,0)"/>
<path d="" fill="#2A99F7" transform="translate(0,0)"/>
<path d="" fill="#2B4B7D" transform="translate(0,0)"/>
<path d="" fill="#269CF8" transform="translate(0,0)"/>
<path d="" fill="#284B7F" transform="translate(0,0)"/>
<path d="" fill="#2B99F4" transform="translate(0,0)"/>
<path d="" fill="#244B82" transform="translate(0,0)"/>
<path d="" fill="#284A7E" transform="translate(0,0)"/>
<path d="" fill="#274A7E" transform="translate(0,0)"/>
<path d="" fill="#294574" transform="translate(0,0)"/>
<path d="" fill="#264980" transform="translate(0,0)"/>
<path d="" fill="#294B7E" transform="translate(0,0)"/>
<path d="" fill="#294B7C" transform="translate(0,0)"/>
<path d="" fill="#284A80" transform="translate(0,0)"/>
<path d="" fill="#27477F" transform="translate(0,0)"/>
<path d="" fill="#294A7B" transform="translate(0,0)"/>
<path d="" fill="#2E5996" transform="translate(0,0)"/>
<path d="" fill="#28487F" transform="translate(0,0)"/>
<path d="" fill="#264E82" transform="translate(0,0)"/>
<path d="" fill="#309DF1" transform="translate(0,0)"/>
<path d="" fill="#308BE3" transform="translate(0,0)"/>
<path d="" fill="#2B4B7E" transform="translate(0,0)"/>
<path d="" fill="#3B7DE6" transform="translate(0,0)"/>
<path d="" fill="#27497D" transform="translate(0,0)"/>
<path d="" fill="#25477D" transform="translate(0,0)"/>
<path d="" fill="#294A7F" transform="translate(0,0)"/>
<path d="" fill="#284C82" transform="translate(0,0)"/>
<path d="" fill="#274980" transform="translate(0,0)"/>
<path d="" fill="#2A4B7E" transform="translate(0,0)"/>
<path d="" fill="#234781" transform="translate(0,0)"/>
<path d="" fill="#25497F" transform="translate(0,0)"/>
<path d="" fill="#2B9BF5" transform="translate(0,0)"/>
<path d="" fill="#274980" transform="translate(0,0)"/>
<path d="" fill="#2C4E80" transform="translate(0,0)"/>
<path d="" fill="#2C4D80" transform="translate(0,0)"/>
<path d="" fill="#2A4A7F" transform="translate(0,0)"/>
<path d="" fill="#279EF6" transform="translate(0,0)"/>
<path d="" fill="#294D84" transform="translate(0,0)"/>
<path d="" fill="#284E83" transform="translate(0,0)"/>
<path d="" fill="#274E84" transform="translate(0,0)"/>
<path d="" fill="#339CF1" transform="translate(0,0)"/>
<path d="" fill="#294F88" transform="translate(0,0)"/>
<path d="" fill="#2A4F81" transform="translate(0,0)"/>
<path d="" fill="#2C4D81" transform="translate(0,0)"/>
<path d="" fill="#314F7D" transform="translate(0,0)"/>
<path d="" fill="#356BA6" transform="translate(0,0)"/>
<path d="" fill="#369AEC" transform="translate(0,0)"/>
<path d="" fill="#315083" transform="translate(0,0)"/>
<path d="" fill="#355380" transform="translate(0,0)"/>
<path d="" fill="#335380" transform="translate(0,0)"/>
<path d="" fill="#375D93" transform="translate(0,0)"/>
<path d="" fill="#319CEB" transform="translate(0,0)"/>
<path d="" fill="#329EF2" transform="translate(0,0)"/>
<path d="" fill="#329FF3" transform="translate(0,0)"/>
<path d="" fill="#3397EB" transform="translate(0,0)"/>
<path d="" fill="#379CEF" transform="translate(0,0)"/>
<path d="" fill="#349EEE" transform="translate(0,0)"/>
<path d="" fill="#359DEE" transform="translate(0,0)"/>
<path d="" fill="#339CEC" transform="translate(0,0)"/>
<path d="" fill="#339BED" transform="translate(0,0)"/>
<path d="" fill="#3597EA" transform="translate(0,0)"/>
<path d="" fill="#345387" transform="translate(0,0)"/>
<path d="" fill="#2F5284" transform="translate(0,0)"/>
<path d="" fill="#305183" transform="translate(0,0)"/>
<path d="" fill="#335588" transform="translate(0,0)"/>
<path d="" fill="#2F4D7B" transform="translate(0,0)"/>
<path d="" fill="#305285" transform="translate(0,0)"/>
<path d="" fill="#325183" transform="translate(0,0)"/>
<path d="" fill="#385280" transform="translate(0,0)"/>
<path d="" fill="#335182" transform="translate(0,0)"/>
<path d="" fill="#304E81" transform="translate(0,0)"/>
<path d="" fill="#2C4B7C" transform="translate(0,0)"/>
<path d="" fill="#355689" transform="translate(0,0)"/>
<path d="" fill="#355A8D" transform="translate(0,0)"/>
<path d="" fill="#375B8E" transform="translate(0,0)"/>
<path d="" fill="#35578E" transform="translate(0,0)"/>
<path d="" fill="#365A8D" transform="translate(0,0)"/>
<path d="" fill="#355D92" transform="translate(0,0)"/>
</svg>
