<?xml version="1.0" encoding="UTF-8"?>
<svg version="1.1" xmlns="http://www.w3.org/2000/svg" width="1024" height="1024">
<path d="M0 0 C3.64581687 -0.02887512 7.29160463 -0.04675585 10.9375 -0.0625 C12.49887695 -0.07506836 12.49887695 -0.07506836 14.09179688 -0.08789062 C15.57583008 -0.09272461 15.57583008 -0.09272461 17.08984375 -0.09765625 C18.46450806 -0.10551147 18.46450806 -0.10551147 19.86694336 -0.11352539 C22 0 22 0 23 1 C24.84856783 1.24055665 26.70494328 1.42142926 28.5625 1.578125 C81.49456029 6.34994534 131.43411302 23.03654548 173 57 C173.55220215 57.44923828 174.1044043 57.89847656 174.67333984 58.36132812 C188.02750189 69.30648915 200.46349336 81.29100505 211 95 C211.92166026 96.18896857 212.84354757 97.37776117 213.765625 98.56640625 C216.19049564 101.70082115 218.59907183 104.8472154 221 108 C219.52352534 112.66480401 215.5932586 114.41113797 211.625 116.75 C210.15277801 117.64310227 208.68142885 118.53764484 207.2109375 119.43359375 C206.48745117 119.87171387 205.76396484 120.30983398 205.01855469 120.76123047 C202.38293666 122.37868643 199.81318799 124.08289894 197.25 125.8125 C185.77371454 133.53602454 174.11496962 140.98743269 162.5 148.5 C160.40030875 149.85843474 158.3006864 151.21697573 156.20117188 152.57568359 C154.68702388 153.55544617 153.17269046 154.53492221 151.65820312 155.51416016 C150.02434109 156.57103586 148.39096905 157.6286694 146.75805664 158.68701172 C145.09160447 159.76705052 143.42412939 160.84551271 141.75561523 161.92236328 C137.20171663 164.87317334 132.69889091 167.88235307 128.23828125 170.97265625 C127.28985352 171.62387451 126.34142578 172.27509277 125.36425781 172.94604492 C123.53069678 174.20841558 121.70540569 175.48290439 119.88964844 176.77075195 C119.06110352 177.33882568 118.23255859 177.90689941 117.37890625 178.4921875 C116.6526001 179.00120605 115.92629395 179.51022461 115.17797852 180.03466797 C112.35249658 181.28698896 110.89801667 180.96111818 108 180 C105.7890625 177.9609375 105.7890625 177.9609375 103.625 175.375 C102.83609375 174.46363281 102.0471875 173.55226563 101.234375 172.61328125 C100.49703125 171.75089844 99.7596875 170.88851562 99 170 C90.36356543 160.1687189 78.0267879 151.1265265 66 146 C65.01 146 64.02 146 63 146 C63 145.34 63 144.68 63 144 C57.69960141 142.33445973 52.52706913 140.72724594 47 140 C47 139.34 47 138.68 47 138 C45.96875 137.87625 44.9375 137.7525 43.875 137.625 C41.21877592 137.30402021 38.58847183 136.93097287 35.94921875 136.48828125 C12.44810415 132.66630068 -11.59484782 135.14980217 -33 146 C-34.01578125 146.50273437 -35.0315625 147.00546875 -36.078125 147.5234375 C-44.6694101 151.93895844 -52.25067795 157.05447673 -59 164 C-59.66 164.66 -60.32 165.32 -61 166 C-61.66 166 -62.32 166 -63 166 C-63.27585937 166.59941406 -63.55171875 167.19882812 -63.8359375 167.81640625 C-65 170 -65 170 -67.625 172.9375 C-83.3196595 190.85780804 -90.42794572 214.68282624 -90.3125 238.125 C-90.30758545 239.30989014 -90.3026709 240.49478027 -90.29760742 241.71557617 C-89.88494686 272.79209113 -76.76112066 300.79641732 -54.66113281 322.46386719 C-36.24111317 339.49778305 -12.17365938 349.35677078 12.45019531 352.92578125 C20.18998339 354.15249358 25.44397447 357.74551321 31.203125 362.80859375 C35.2699707 366.32749811 39.65467756 369.27204483 44.125 372.25 C49.80852233 376.08439558 55.41588744 379.95698965 60.8125 384.1875 C65.0140806 387.48005939 69.26756558 390.66765447 73.625 393.75 C79.215611 397.70604459 84.74337422 401.74037338 90.25 405.8125 C98.75642413 412.09848153 107.30932055 418.31680604 115.8984375 424.48925781 C117.95460045 425.9673638 120.00860329 427.44843485 122.0625 428.9296875 C123.31234266 429.82834387 124.56233411 430.72679335 125.8125 431.625 C126.64744995 432.22779785 126.64744995 432.22779785 127.49926758 432.84277344 C130.58435178 435.05272732 133.71784745 437.09501682 137 439 C135.87654165 442.37037506 135.556887 442.54920242 132.61328125 444.15625 C131.92169922 444.53910156 131.23011719 444.92195313 130.51757812 445.31640625 C129.78990234 445.70699219 129.06222656 446.09757812 128.3125 446.5 C127.60416016 446.89058594 126.89582031 447.28117187 126.16601562 447.68359375 C114.64973958 454 114.64973958 454 112 454 C111.67 454.66 111.34 455.32 111 456 C108.61767578 457.06567383 108.61767578 457.06567383 105.4453125 458.20703125 C103.70169434 458.83617432 103.70169434 458.83617432 101.92285156 459.47802734 C100.65729024 459.92395765 99.39133006 460.36875741 98.125 460.8125 C97.48719604 461.03754211 96.84939209 461.26258423 96.19226074 461.4944458 C31.60091628 484.22253274 -39.71552682 481.5370148 -101.9453125 452.48046875 C-114.2923873 446.53514066 -125.92570962 439.39059077 -137.01464844 431.35205078 C-140.63285279 428.64802159 -140.63285279 428.64802159 -145 428 C-145.66 426.68 -146.32 425.36 -147 424 C-147.66 424 -148.32 424 -149 424 C-150.72745576 422.371256 -152.3639899 420.71716987 -154 419 C-155.20415191 417.76673672 -156.4126302 416.53768554 -157.625 415.3125 C-158.47964844 414.44044922 -158.47964844 414.44044922 -159.3515625 413.55078125 C-161.12382974 411.79748102 -161.12382974 411.79748102 -164 410 C-164 409.34 -164 408.68 -164 408 C-164.54527344 407.78859375 -165.09054687 407.5771875 -165.65234375 407.359375 C-168.84960459 405.50804925 -171.110972 402.96360849 -173.5625 400.25 C-174.08481201 399.67725342 -174.60712402 399.10450684 -175.14526367 398.5144043 C-193.21503166 378.44626209 -210.39145699 354.30868931 -219.28125 328.6171875 C-219.88754509 326.79134943 -219.88754509 326.79134943 -222 326 C-222.23229107 324.40652671 -222.45547198 322.81137961 -222.64208984 321.21191406 C-223.37954323 316.65439176 -224.95410937 312.2786323 -226.3125 307.875 C-244.35066455 247.88170874 -236.68752995 183.42966709 -207.56811523 128.23657227 C-203.19178444 120.13702247 -198.42790282 112.4337716 -193 105 C-192.60103516 104.45230957 -192.20207031 103.90461914 -191.79101562 103.34033203 C-181.20815753 88.95292794 -169.57448883 75.62230482 -156 64 C-155.06414062 63.175 -154.12828125 62.35 -153.1640625 61.5 C-113.22164053 26.58031553 -53.85595158 -0.69779349 0 2 C0 1.34 0 0.68 0 0 Z " fill="#1C66FA" transform="translate(513,240)"/>
<path d="M0 0 C2.46376224 0.77354393 4.37813673 1.54066319 6.54829407 2.91441345 C7.23254456 3.34028748 7.91679504 3.7661615 8.6217804 4.2049408 C9.34905334 4.67109802 10.07632629 5.13725525 10.82563782 5.61753845 C11.6051178 6.10560974 12.38459778 6.59368103 13.18769836 7.09654236 C14.85776104 8.14246024 16.52542183 9.19222143 18.19087219 10.24546814 C22.46678227 12.94185639 26.77367442 15.58799858 31.07563782 18.24253845 C36.60274053 21.6593678 42.12106072 25.08922243 47.62251282 28.54722595 C48.5773053 29.14486755 49.53209778 29.74250916 50.51582336 30.35826111 C52.35078863 31.50716716 54.18311191 32.66030669 56.0124054 33.81822205 C56.83893616 34.33465271 57.66546692 34.85108337 58.51704407 35.38316345 C59.24222229 35.83981384 59.96740051 36.29646423 60.71455383 36.76695251 C62.74268679 37.8565513 64.54375001 38.3193711 66.76313782 38.86753845 C67.34837219 39.45406189 67.93360657 40.04058533 68.53657532 40.6448822 C71.48369755 43.58683405 74.78228526 45.38753089 78.38813782 47.43003845 C79.90069758 48.30227959 81.41238531 49.17603428 82.92329407 50.0511322 C83.70978333 50.50601013 84.49627258 50.96088806 85.30659485 51.42955017 C89.51474102 53.89287565 93.66998301 56.44196682 97.82563782 58.99253845 C98.61728333 59.47795105 99.40892883 59.96336365 100.2245636 60.46348572 C102.0715012 61.59695497 103.91743776 62.73205514 105.76313782 63.86753845 C105.28131493 68.98076088 102.71812179 72.30564847 99.82563782 76.36753845 C99.09389343 77.41071228 99.09389343 77.41071228 98.34736633 78.47496033 C95.03769584 83.15899004 91.65868686 87.79197663 88.20063782 92.36753845 C87.78370667 92.92505798 87.36677551 93.48257751 86.93721008 94.05699158 C85.92843152 95.36662658 84.85171944 96.62344517 83.76313782 97.86753845 C83.10313782 97.86753845 82.44313782 97.86753845 81.76313782 97.86753845 C81.49525452 98.45688171 81.22737122 99.04622498 80.95137024 99.65342712 C79.75106721 101.8900304 78.48882731 103.45319974 76.75141907 105.2933197 C76.15780579 105.92560486 75.5641925 106.55789001 74.95259094 107.20933533 C74.33319641 107.85966736 73.71380188 108.50999939 73.07563782 109.18003845 C72.47557922 109.81876892 71.87552063 110.45749939 71.25727844 111.11558533 C65.45648435 117.26529937 59.67247198 123.30995718 53.07563782 128.61753845 C52.16427063 129.3548822 51.25290344 130.09222595 50.31391907 130.85191345 C49.47216125 131.5170697 48.63040344 132.18222595 47.76313782 132.86753845 C47.0966925 133.4708197 46.43024719 134.07410095 45.74360657 134.69566345 C43.76313782 135.86753845 43.76313782 135.86753845 41.36079407 135.7855072 C38.20305945 134.66961602 35.92179027 133.14028276 33.20063782 131.18003845 C32.0484363 130.35952619 30.89608218 129.53922819 29.74360657 128.71910095 C29.11244934 128.26567322 28.48129211 127.81224548 27.83100891 127.34507751 C24.76099576 125.15148607 21.66400075 122.9970297 18.56929016 120.83848572 C9.30588688 114.37533758 0.07598119 107.86470938 -9.14701843 101.34410095 C-11.29052548 99.82962308 -13.43537576 98.31706555 -15.58061218 96.80503845 C-28.54082878 87.66921955 -41.44492987 78.4602778 -54.28544617 69.15684509 C-55.01578064 68.6282489 -55.74611511 68.09965271 -56.49858093 67.55503845 C-57.47250793 66.84927673 -57.47250793 66.84927673 -58.46611023 66.1292572 C-60.03497977 65.01138628 -61.63400696 63.9361086 -63.23686218 62.86753845 C-63.23686218 61.87753845 -63.23686218 60.88753845 -63.23686218 59.86753845 C-62.57686218 59.86753845 -61.91686218 59.86753845 -61.23686218 59.86753845 C-61.01560669 59.32325699 -60.7943512 58.77897552 -60.56639099 58.21820068 C-58.81132597 55.11517274 -56.45602526 52.76727399 -53.96440125 50.25694275 C-53.427547 49.7085524 -52.89069275 49.16016205 -52.33757019 48.59515381 C-50.56493192 46.7882841 -48.78454234 44.9893375 -47.00248718 43.1917572 C-46.08973652 42.26865218 -46.08973652 42.26865218 -45.15854645 41.32689857 C-41.94134429 38.07390432 -38.71807284 34.82706617 -35.48979187 31.58506775 C-32.154235 28.2329186 -28.84015862 24.86033801 -25.53050613 21.48263836 C-22.98224647 18.88967127 -20.41857874 16.31236624 -17.85044098 13.7390995 C-16.62137169 12.5021232 -15.39819621 11.25926191 -14.18108368 10.01051903 C-12.47905598 8.26719177 -10.75639243 6.54718607 -9.02690125 4.8311615 C-8.52797363 4.31020905 -8.02904602 3.78925659 -7.51499939 3.2525177 C-4.87949731 0.68621704 -3.74671825 -0.1533263 0 0 Z " fill="#1C67FD" transform="translate(629.2368621826172,530.1324615478516)"/>
<path d="M0 0 C0.33 0 0.66 0 1 0 C0.98428955 1.14662109 0.9685791 2.29324219 0.95239258 3.47460938 C0.25858962 59.1049254 8.53520519 114.82824626 44 160 C44.66 160.33 45.32 160.66 46 161 C46.515625 161.969375 47.03125 162.93875 47.5625 163.9375 C49.99267299 168.36259112 53.29207339 171.83550585 56.70703125 175.5234375 C58.69014116 177.66533134 60.60404609 179.84392456 62.5 182.0625 C69.23057001 190.46372468 69.23057001 190.46372468 78 196 C79.359375 197.453125 79.359375 197.453125 80.75 199.25 C84.42085077 203.69896128 88.44191998 207.14730666 94 209 C94.763125 209.804375 95.52625 210.60875 96.3125 211.4375 C99.19771274 214.1885168 101.27548662 214.81492756 105 216 C105.33 216.99 105.66 217.98 106 219 C107.73053938 220.33540547 107.73053938 220.33540547 109.89453125 221.48046875 C111.08079102 222.14272461 111.08079102 222.14272461 112.29101562 222.81835938 C113.53915039 223.49608398 113.53915039 223.49608398 114.8125 224.1875 C115.63298828 224.65091797 116.45347656 225.11433594 117.29882812 225.59179688 C122.30719524 228.39368925 122.30719524 228.39368925 128 229 C128 229.66 128 230.32 128 231 C128.66 231 129.32 231 130 231 C130.442229 231.44964111 130.88445801 231.89928223 131.34008789 232.36254883 C155.99161405 256.68050529 215.47076355 258.12349966 248 258 C290.11898947 257.34532782 330.74052159 246.34072844 367 225 C362.98765183 220.71175362 358.60019391 217.38325549 353.8125 214 C352.19784117 212.84645984 350.58326004 211.69281091 348.96875 210.5390625 C348.14503906 209.95286133 347.32132813 209.36666016 346.47265625 208.76269531 C342.57394145 205.98339823 338.69310378 203.17950173 334.8125 200.375 C334.06621338 199.83641357 333.31992676 199.29782715 332.55102539 198.74291992 C327.14678166 194.83955979 321.76839976 190.90209792 316.39941406 186.95043945 C312.31415185 183.94878813 308.19726921 180.99545767 304.0625 178.0625 C298.32515507 173.98816536 292.6854584 169.79378962 287.06665039 165.55786133 C280.09386416 160.30422903 273.05172778 155.14695073 266 150 C269.43671236 150 270.22924863 150.58704254 272.9921875 152.4921875 C273.77311768 153.02739014 274.55404785 153.56259277 275.35864258 154.11401367 C276.6042395 154.9857019 276.6042395 154.9857019 277.875 155.875 C278.73053467 156.46708252 279.58606934 157.05916504 280.4675293 157.66918945 C286.4242227 161.8206886 292.20311489 166.1426611 297.91796875 170.62109375 C301.09982471 173.07705101 304.34429717 175.4293088 307.625 177.75 C313.215611 181.70604459 318.74337422 185.74037338 324.25 189.8125 C332.75642413 196.09848153 341.30932055 202.31680604 349.8984375 208.48925781 C351.95460045 209.9673638 354.00860329 211.44843485 356.0625 212.9296875 C357.31234266 213.82834387 358.56233411 214.72679335 359.8125 215.625 C360.3691333 216.02686523 360.9257666 216.42873047 361.49926758 216.84277344 C364.58435178 219.05272732 367.71784745 221.09501682 371 223 C369.87654165 226.37037506 369.556887 226.54920242 366.61328125 228.15625 C365.92169922 228.53910156 365.23011719 228.92195312 364.51757812 229.31640625 C363.78990234 229.70699219 363.06222656 230.09757813 362.3125 230.5 C361.60416016 230.89058594 360.89582031 231.28117188 360.16601562 231.68359375 C348.64973958 238 348.64973958 238 346 238 C345.67 238.66 345.34 239.32 345 240 C342.61767578 241.06567383 342.61767578 241.06567383 339.4453125 242.20703125 C337.70169434 242.83617432 337.70169434 242.83617432 335.92285156 243.47802734 C334.65729024 243.92395765 333.39133006 244.36875741 332.125 244.8125 C331.48719604 245.03754211 330.84939209 245.26258423 330.19226074 245.4944458 C265.60091628 268.22253274 194.28447318 265.5370148 132.0546875 236.48046875 C119.7076127 230.53514066 108.07429038 223.39059077 96.98535156 215.35205078 C93.36714721 212.64802159 93.36714721 212.64802159 89 212 C88.34 210.68 87.68 209.36 87 208 C86.34 208 85.68 208 85 208 C83.27254424 206.371256 81.6360101 204.71716987 80 203 C78.79584809 201.76673672 77.5873698 200.53768554 76.375 199.3125 C75.52035156 198.44044922 75.52035156 198.44044922 74.6484375 197.55078125 C72.87617026 195.79748102 72.87617026 195.79748102 70 194 C70 193.34 70 192.68 70 192 C69.45472656 191.78859375 68.90945313 191.5771875 68.34765625 191.359375 C65.15039541 189.50804925 62.889028 186.96360849 60.4375 184.25 C59.91518799 183.67725342 59.39287598 183.10450684 58.85473633 182.5144043 C40.78496834 162.44626209 23.60854301 138.30868931 14.71875 112.6171875 C14.11245491 110.79134943 14.11245491 110.79134943 12 110 C11.76770893 108.40652671 11.54452802 106.81137961 11.35791016 105.21191406 C10.62045677 100.65439176 9.04589063 96.2786323 7.6875 91.875 C2.90055427 75.95405479 -0.62951387 59.57191314 -1.5625 42.9375 C-1.6251001 41.82169556 -1.6251001 41.82169556 -1.68896484 40.68334961 C-2.22137195 30.51437397 -2.0845327 20.41552864 -1.5625 10.25 C-1.50376709 9.06869507 -1.50376709 9.06869507 -1.44384766 7.86352539 C-1.12163164 2.24326328 -1.12163164 2.24326328 0 0 Z " fill="#113BD0" transform="translate(279,456)"/>
<path d="M0 0 C0.94327148 -0.00201416 1.88654297 -0.00402832 2.85839844 -0.00610352 C4.3844873 0.00078491 4.3844873 0.00078491 5.94140625 0.0078125 C6.97297852 0.01047119 8.00455078 0.01312988 9.06738281 0.01586914 C15.6382838 0.05588619 22.19235882 0.21622545 28.75390625 0.5703125 C29.49697021 0.60946777 30.24003418 0.64862305 31.00561523 0.68896484 C34.04534301 0.87553015 36.59946511 1.16466545 39.50390625 2.1328125 C39.50390625 2.7928125 39.50390625 3.4528125 39.50390625 4.1328125 C40.04015625 3.9059375 40.57640625 3.6790625 41.12890625 3.4453125 C44.5511334 2.99501945 46.5149852 4.54296088 49.50390625 6.1328125 C50.49390625 6.1328125 51.48390625 6.1328125 52.50390625 6.1328125 C52.50390625 6.7928125 52.50390625 7.4528125 52.50390625 8.1328125 C54.81390625 8.4628125 57.12390625 8.7928125 59.50390625 9.1328125 C59.50390625 9.7928125 59.50390625 10.4528125 59.50390625 11.1328125 C62.14390625 11.4628125 64.78390625 11.7928125 67.50390625 12.1328125 C67.50390625 12.7928125 67.50390625 13.4528125 67.50390625 14.1328125 C68.45265625 14.4215625 69.40140625 14.7103125 70.37890625 15.0078125 C73.50390625 16.1328125 73.50390625 16.1328125 75.50390625 18.1328125 C76.47328125 18.5865625 77.44265625 19.0403125 78.44140625 19.5078125 C81.53081887 21.14709267 82.55505665 22.34874164 84.50390625 25.1328125 C85.49390625 25.4628125 86.48390625 25.7928125 87.50390625 26.1328125 C87.50390625 26.7928125 87.50390625 27.4528125 87.50390625 28.1328125 C88.16390625 28.1328125 88.82390625 28.1328125 89.50390625 28.1328125 C89.50390625 28.7928125 89.50390625 29.4528125 89.50390625 30.1328125 C90.06078125 30.1946875 90.61765625 30.2565625 91.19140625 30.3203125 C94.49333491 31.4804496 96.13298616 33.58841045 98.50390625 36.1328125 C99.39078125 36.9784375 100.27765625 37.8240625 101.19140625 38.6953125 C103.24023058 40.85488409 104.27532076 42.48662837 105.50390625 45.1328125 C106.16390625 45.4628125 106.82390625 45.7928125 107.50390625 46.1328125 C107.50390625 45.4728125 107.50390625 44.8128125 107.50390625 44.1328125 C108.22578125 44.0296875 108.94765625 43.9265625 109.69140625 43.8203125 C112.75055854 43.07251972 114.84598398 41.78503445 117.50390625 40.1328125 C118.16390625 40.1328125 118.82390625 40.1328125 119.50390625 40.1328125 C119.50390625 39.4728125 119.50390625 38.8128125 119.50390625 38.1328125 C121.46538499 36.74343173 123.46557201 35.4067714 125.50390625 34.1328125 C124.42417887 32.7133956 123.33994762 31.2974042 122.25390625 29.8828125 C121.650625 29.09390625 121.04734375 28.305 120.42578125 27.4921875 C118.5720763 25.21650093 116.61491671 23.16909692 114.50390625 21.1328125 C114.83390625 20.4728125 115.16390625 19.8128125 115.50390625 19.1328125 C120.10279654 23.53078039 124.1516163 27.71757489 127.50390625 33.1328125 C128.16390625 33.7928125 128.82390625 34.4528125 129.50390625 35.1328125 C125.85293515 37.82156505 122.18129833 40.48034518 118.50390625 43.1328125 C117.65957031 43.76058594 116.81523438 44.38835937 115.9453125 45.03515625 C115.18089844 45.58300781 114.41648437 46.13085938 113.62890625 46.6953125 C112.95085937 47.19160156 112.2728125 47.68789063 111.57421875 48.19921875 C108.72702281 49.48314296 107.41479006 49.22213393 104.50390625 48.1328125 C102.29296875 46.09375 102.29296875 46.09375 100.12890625 43.5078125 C98.94554687 42.14076172 98.94554687 42.14076172 97.73828125 40.74609375 C97.0009375 39.88371094 96.26359375 39.02132812 95.50390625 38.1328125 C86.86747168 28.3015314 74.53069415 19.259339 62.50390625 14.1328125 C61.51390625 14.1328125 60.52390625 14.1328125 59.50390625 14.1328125 C59.50390625 13.4728125 59.50390625 12.8128125 59.50390625 12.1328125 C54.20350766 10.46727223 49.03097538 8.86005844 43.50390625 8.1328125 C43.50390625 7.4728125 43.50390625 6.8128125 43.50390625 6.1328125 C41.95703125 5.9471875 41.95703125 5.9471875 40.37890625 5.7578125 C37.72268217 5.43683271 35.09237808 5.06378537 32.453125 4.62109375 C8.96322228 0.80093656 -15.10450068 3.27133237 -36.49609375 14.1328125 C-37.52347656 14.64714844 -38.55085938 15.16148437 -39.609375 15.69140625 C-46.4720676 19.24544198 -52.60576967 23.12527601 -58.49609375 28.1328125 C-59.15609375 27.8028125 -59.81609375 27.4728125 -60.49609375 27.1328125 C-54.50228206 21.74959701 -48.54102662 17.32615434 -41.43359375 13.5703125 C-40.77866943 13.22419922 -40.12374512 12.87808594 -39.44897461 12.52148438 C-34.78947689 10.1328125 -34.78947689 10.1328125 -32.49609375 10.1328125 C-32.16609375 9.1428125 -31.83609375 8.1528125 -31.49609375 7.1328125 C-30.85542969 7.02324219 -30.21476562 6.91367187 -29.5546875 6.80078125 C-25.42116237 6.04307098 -21.80152956 5.26677558 -17.93359375 3.5703125 C-14.26687306 2.03695657 -11.24105849 1.62313202 -7.31640625 1.34375 C-4.55553598 1.02382083 -3.14358849 0.00420226 0 0 Z " fill="#0C39D0" transform="translate(516.49609375,371.8671875)"/>
<path d="M0 0 C5.05262034 1.62476419 8.90822251 4.63404647 13.125 7.75 C13.91197266 8.32492187 14.69894531 8.89984375 15.50976562 9.4921875 C18.01101398 11.32207941 20.50618296 13.15999631 23 15 C24.59114381 16.17187774 26.18228962 17.34375278 27.7734375 18.515625 C30.14691632 20.26471065 32.51977718 22.01461177 34.89111328 23.76660156 C40.97214603 28.25625475 47.09266171 32.68861723 53.22827148 37.10327148 C58.70378045 41.04867424 64.13802714 45.04731026 69.5625 49.0625 C81.17510263 57.64748869 92.8861262 66.1311589 105 74 C103.87654165 77.37037506 103.556887 77.54920242 100.61328125 79.15625 C99.92169922 79.53910156 99.23011719 79.92195312 98.51757812 80.31640625 C97.78990234 80.70699219 97.06222656 81.09757813 96.3125 81.5 C95.60416016 81.89058594 94.89582031 82.28117188 94.16601562 82.68359375 C82.64973958 89 82.64973958 89 80 89 C79.67 89.66 79.34 90.32 79 91 C76.61767578 92.06567383 76.61767578 92.06567383 73.4453125 93.20703125 C72.28290039 93.62645996 71.12048828 94.04588867 69.92285156 94.47802734 C68.65729024 94.92395765 67.39133006 95.36875741 66.125 95.8125 C65.48719604 96.03754211 64.84939209 96.26258423 64.19226074 96.4944458 C34.57869594 106.9147224 -3.78424027 117.52535267 -35.1875 111 C-36.57001953 110.7215625 -36.57001953 110.7215625 -37.98046875 110.4375 C-38.64691406 110.293125 -39.31335938 110.14875 -40 110 C-40 109.67 -40 109.34 -40 109 C-38.13988281 109.03480469 -38.13988281 109.03480469 -36.2421875 109.0703125 C12.45881824 109.69822886 58.77380108 100.85247675 101 76 C96.98765183 71.71175362 92.60019391 68.38325549 87.8125 65 C86.19784117 63.84645984 84.58326004 62.69281091 82.96875 61.5390625 C81.73318359 60.65976074 81.73318359 60.65976074 80.47265625 59.76269531 C76.57394145 56.98339823 72.69310378 54.17950173 68.8125 51.375 C68.06621338 50.83641357 67.31992676 50.29782715 66.55102539 49.74291992 C61.14678166 45.83955979 55.76839976 41.90209792 50.39941406 37.95043945 C46.31415185 34.94878813 42.19726921 31.99545767 38.0625 29.0625 C32.32483972 24.98794142 26.68283144 20.79579488 21.06665039 16.55566406 C17.61483681 13.95195261 14.1498026 11.37030661 10.65234375 8.828125 C9.9555249 8.32144287 9.25870605 7.81476074 8.54077148 7.29272461 C7.20245246 6.32200703 5.86218224 5.35397264 4.51977539 4.38891602 C2.99569217 3.28298983 1.49502783 2.14489919 0 1 C0 0.67 0 0.34 0 0 Z " fill="#1645DA" transform="translate(545,605)"/>
<path d="M0 0 C3.80004375 3.37897412 7.43584186 6.64009092 10.26953125 10.890625 C6.88196227 10.32994574 5.59834672 9.46744793 3.55859375 6.73828125 C0.09959403 2.48880793 -3.89972518 -0.5237286 -8.35546875 -3.671875 C-9.1436499 -4.23688721 -9.93183105 -4.80189941 -10.74389648 -5.3840332 C-16.16840491 -9.20058405 -21.56853506 -12.36821645 -27.640625 -15.05859375 C-29.73046875 -16.109375 -29.73046875 -16.109375 -30.73046875 -18.109375 C-32.39255006 -18.46486706 -34.06069697 -18.79196189 -35.73046875 -19.109375 C-38.31135225 -20.03527735 -40.86462592 -20.9888097 -43.41796875 -21.984375 C-78.784024 -35.50918012 -116.76565165 -33.97984541 -151.34228516 -18.69628906 C-154.53020095 -17.23745542 -157.56195292 -15.63545683 -160.5625 -13.83203125 C-161.60792969 -13.26355469 -162.65335937 -12.69507813 -163.73046875 -12.109375 C-164.39046875 -12.439375 -165.05046875 -12.769375 -165.73046875 -13.109375 C-114.59592109 -44.76018022 -45.84197891 -39.19049481 0 0 Z " fill="#0434D7" transform="translate(620.73046875,380.109375)"/>
<path d="M0 0 C0.33 0.99 0.66 1.98 1 3 C3.01068686 4.5990032 5.00629315 6.05801952 7.125 7.5 C8.41347581 8.39741123 9.7012126 9.29588429 10.98828125 10.1953125 C11.65424316 10.6584082 12.32020508 11.12150391 13.00634766 11.59863281 C16.14653959 13.80591933 19.2274197 16.09166174 22.3125 18.375 C29.74577977 23.85108209 37.2827849 29.1740288 44.83837891 34.47949219 C46.99297597 35.99505922 49.14362336 37.51605859 51.29296875 39.0390625 C58.80893288 44.36308507 66.35394663 49.6385053 73.95654297 54.83813477 C79.79336176 58.83765094 85.57102699 62.91868882 91.33007812 67.02929688 C93.21117137 68.36619728 95.10233714 69.68676811 97 71 C97.90363281 71.6290625 98.80726563 72.258125 99.73828125 72.90625 C101.87440535 74.14759336 101.87440535 74.14759336 103.953125 73.97265625 C106.93976627 72.55343168 109.22931652 70.5680777 111.75 68.4375 C112.73484375 67.61121094 113.7196875 66.78492188 114.734375 65.93359375 C115.48203125 65.29550781 116.2296875 64.65742187 117 64 C117.66 64.33 118.32 64.66 119 65 C117.23139162 66.62748003 115.46024324 68.25203457 113.6875 69.875 C113.18798828 70.33519531 112.68847656 70.79539062 112.17382812 71.26953125 C109.85790957 73.38606608 107.61710426 75.25526383 105 77 C100.62530783 76.72977694 97.93475799 74.83182966 94.4375 72.3125 C93.28529848 71.49198773 92.13294436 70.67168974 90.98046875 69.8515625 C90.34931152 69.39813477 89.7181543 68.94470703 89.06787109 68.47753906 C85.99785795 66.28394761 82.90086294 64.12949125 79.80615234 61.97094727 C70.54274906 55.50779913 61.31284338 48.99717093 52.08984375 42.4765625 C49.9463367 40.96208462 47.80148642 39.4495271 45.65625 37.9375 C32.69603341 28.8016811 19.79193231 19.59273935 6.95141602 10.28930664 C6.22108154 9.76071045 5.49074707 9.23211426 4.73828125 8.6875 C4.08899658 8.21699219 3.43971191 7.74648438 2.77075195 7.26171875 C1.20188241 6.14384783 -0.39714477 5.06857015 -2 4 C-2 3.01 -2 2.02 -2 1 C-1.34 0.67 -0.68 0.34 0 0 Z " fill="#1042E2" transform="translate(568,589)"/>
<path d="M0 0 C5.05262034 1.62476419 8.90822251 4.63404647 13.125 7.75 C13.91197266 8.32492187 14.69894531 8.89984375 15.50976562 9.4921875 C18.01101398 11.32207941 20.50618296 13.15999631 23 15 C24.59114381 16.17187774 26.18228962 17.34375278 27.7734375 18.515625 C30.14691632 20.26471065 32.51977718 22.01461177 34.89111328 23.76660156 C40.97214603 28.25625475 47.09266171 32.68861723 53.22827148 37.10327148 C58.70378045 41.04867424 64.13802714 45.04731026 69.5625 49.0625 C81.17510263 57.64748869 92.8861262 66.1311589 105 74 C104.505 75.485 104.505 75.485 104 77 C103.67 76.34 103.34 75.68 103 75 C101.68238209 74.3027875 100.34641901 73.63982659 99 73 C97.78947175 72.21366401 96.5956871 71.40108129 95.41796875 70.56640625 C94.74096924 70.08800293 94.06396973 69.60959961 93.36645508 69.11669922 C92.6473999 68.60381348 91.92834473 68.09092773 91.1875 67.5625 C90.43557373 67.02898926 89.68364746 66.49547852 88.90893555 65.94580078 C83.38686914 62.01680556 77.91059831 58.02779911 72.45581055 54.00610352 C68.33020624 50.96615578 64.176628 47.96939479 60 45 C51.07865675 38.65154414 42.26875857 32.15307465 33.4609375 25.6484375 C32.67855713 25.0709375 31.89617676 24.4934375 31.09008789 23.8984375 C29.49255684 22.71924173 27.89538681 21.53955671 26.29858398 20.359375 C22.16072224 17.30692982 18.00717502 14.27947819 13.82421875 11.2890625 C12.9938208 10.69464355 12.16342285 10.10022461 11.30786133 9.48779297 C9.71532524 8.35024436 8.12020166 7.21630737 6.5222168 6.08642578 C5.81105713 5.57837402 5.09989746 5.07032227 4.3671875 4.546875 C3.73925293 4.10182617 3.11131836 3.65677734 2.46435547 3.19824219 C1 2 1 2 0 0 Z " fill="#154DE9" transform="translate(545,605)"/>
<path d="M0 0 C0.495 0.99 0.495 0.99 1 2 C-0.04657425 4.00134374 -1.19310986 5.95046625 -2.375 7.875 C-18.54219052 35.17399356 -26.1607326 64.9415507 -31 96 C-31.33 96 -31.66 96 -32 96 C-35.0259699 64.73164433 -17.59753029 24.91335749 0 0 Z " fill="#1446DD" transform="translate(312,358)"/>
<path d="M0 0 C0.66 0 1.32 0 2 0 C1.67 0.99 1.34 1.98 1 3 C0.34 3 -0.32 3 -1 3 C-1.27585937 3.59941406 -1.55171875 4.19882812 -1.8359375 4.81640625 C-3 7 -3 7 -5.625 9.9375 C-22.26305122 28.93498146 -28.06051691 53.11778542 -28.625 77.6875 C-28.66329144 79.08270367 -28.7023491 80.47788652 -28.7421875 81.87304688 C-28.83562763 85.24857169 -28.92139416 88.6241027 -29 92 C-29.33 92 -29.66 92 -30 92 C-35.31944776 67.94255764 -28.14126239 40.78950286 -16 20 C-13.21249468 15.83420174 -10.1272697 11.91514772 -7 8 C-6.45859375 7.22914063 -5.9171875 6.45828125 -5.359375 5.6640625 C-4.91078125 5.11492187 -4.4621875 4.56578125 -4 4 C-3.34 4 -2.68 4 -2 4 C-1.34 2.68 -0.68 1.36 0 0 Z " fill="#1A56E8" transform="translate(451,403)"/>
<path d="M0 0 C0.99 0.33 1.98 0.66 3 1 C0.29817708 3.70182292 -2.40364583 6.40364583 -5.10546875 9.10546875 C-5.82887451 9.83008301 -5.82887451 9.83008301 -6.56689453 10.56933594 C-7.93599763 11.93610667 -9.31350611 13.29444216 -10.69140625 14.65234375 C-12.51325682 16.50502089 -14.14369675 18.34233231 -15.75 20.375 C-18.08030932 23.14860724 -20.53425686 25.27362269 -23.4375 27.4375 C-27.25884604 30.29870885 -30.25899012 33.36521502 -33.3125 37.01953125 C-36.02242384 40.19992798 -39.01944937 43.07635726 -42 46 C-42.93802223 46.95782217 -43.87558007 47.91609955 -44.8125 48.875 C-47 51 -47 51 -49 52 C-48.47275535 47.8884164 -46.35948786 45.99635871 -43.48022461 43.13964844 C-43.0119072 42.67089294 -42.54358978 42.20213745 -42.06108093 41.71917725 C-40.51517453 40.17535675 -38.95892317 38.6424274 -37.40234375 37.109375 C-36.32694816 36.03957606 -35.25221408 34.96911176 -34.17811584 33.89801025 C-31.35210651 31.08344419 -28.51720358 28.27800421 -25.68035889 25.47436523 C-22.78604148 22.61075972 -19.90021924 19.73862139 -17.01367188 16.8671875 C-11.35073117 11.23640183 -5.67836727 5.61522817 0 0 Z " fill="#1B55E9" transform="translate(619,537)"/>
<path d="M0 0 C4.52752811 0.54904725 7.77373333 2.46149386 11.5 4.9375 C12.11166016 5.33864014 12.72332031 5.73978027 13.35351562 6.15307617 C19.81680614 10.45056529 25.97802545 15.10603017 32 20 C32.55655273 20.45213867 33.11310547 20.90427734 33.68652344 21.37011719 C46.64973034 31.99654521 60.6686671 43.93978024 70 58 C70 58.99 70 59.98 70 61 C57.21710203 47.31364909 57.21710203 47.31364909 53.1875 42.625 C46.47816812 34.89860558 39.05652562 28.29386128 31 22 C30.40123047 21.53013672 29.80246094 21.06027344 29.18554688 20.57617188 C21.26117484 14.39306572 13.24741174 8.68052784 4.52050781 3.67773438 C3.00122366 2.80651344 1.49853672 1.90644247 0 1 C0 0.67 0 0.34 0 0 Z " fill="#1B5BED" transform="translate(654,277)"/>
<path d="M0 0 C3.5019499 0.28015599 3.92208046 0.74368436 6.125 3.25 C5.155625 3.33636719 4.18625 3.42273438 3.1875 3.51171875 C-10.16489777 4.85317833 -22.85009778 8.14441281 -34.875 14.25 C-35.90238281 14.76433594 -36.92976563 15.27867187 -37.98828125 15.80859375 C-44.85097385 19.36262948 -50.98467592 23.24246351 -56.875 28.25 C-57.535 27.92 -58.195 27.59 -58.875 27.25 C-52.88118831 21.86678451 -46.91993287 17.44334184 -39.8125 13.6875 C-39.15757568 13.34138672 -38.50265137 12.99527344 -37.82788086 12.63867188 C-33.16838314 10.25 -33.16838314 10.25 -30.875 10.25 C-30.545 9.26 -30.215 8.27 -29.875 7.25 C-29.23433594 7.14042969 -28.59367187 7.03085937 -27.93359375 6.91796875 C-23.80006862 6.16025848 -20.18043581 5.38396308 -16.3125 3.6875 C-12.64577931 2.15414407 -9.61996474 1.74031952 -5.6953125 1.4609375 C-3.11797554 1.16227614 -2.91199825 0.25321724 0 0 Z " fill="#1142D9" transform="translate(514.875,371.75)"/>
<path d="M0 0 C5.19563531 0.48804402 8.82313225 3.20225043 13.0625 6 C14.46677666 6.92167657 15.87423318 7.83853045 17.28515625 8.75 C17.90269775 9.15734375 18.52023926 9.5646875 19.15649414 9.984375 C20.97882453 11.09087932 20.97882453 11.09087932 23.12133789 11.52954102 C25 12 25 12 26.7734375 13.77734375 C29.72055974 16.7192956 33.01914745 18.51999244 36.625 20.5625 C38.13755976 21.43474114 39.6492475 22.30849583 41.16015625 23.18359375 C42.33989014 23.86591064 42.33989014 23.86591064 43.54345703 24.56201172 C47.75160321 27.0253372 51.90684519 29.57442837 56.0625 32.125 C56.85414551 32.6104126 57.64579102 33.0958252 58.46142578 33.59594727 C60.30836338 34.72941652 62.15429994 35.86451669 64 37 C63.625 39.4375 63.625 39.4375 63 42 C62.01 42.495 62.01 42.495 61 43 C61 41.35 61 39.7 61 38 C59.845 37.38125 58.69 36.7625 57.5 36.125 C50.15599086 32.04499492 43.10304956 27.48099631 36 23 C33.41835982 21.37229093 30.83518925 19.74706673 28.25 18.125 C27.61247803 17.72458496 26.97495605 17.32416992 26.31811523 16.91162109 C19.7097998 12.78172798 13.01247012 8.80046352 6.29785156 4.84619141 C5.47768555 4.35940918 4.65751953 3.87262695 3.8125 3.37109375 C3.07644531 2.93724365 2.34039063 2.50339355 1.58203125 2.05639648 C1.05996094 1.70778564 0.53789063 1.3591748 0 1 C0 0.67 0 0.34 0 0 Z " fill="#1B58ED" transform="translate(671,557)"/>
<path d="M0 0 C0.51691406 0.24492187 1.03382813 0.48984375 1.56640625 0.7421875 C0.60863281 1.25265625 -0.34914063 1.763125 -1.3359375 2.2890625 C-19.19300386 11.97071382 -37.33841104 23.97242425 -51.43359375 38.7421875 C-52.09359375 38.4121875 -52.75359375 38.0821875 -53.43359375 37.7421875 C-40.69045914 24.08882899 -25.17064762 13.43360331 -9.37109375 3.6171875 C-8.73953369 3.21419434 -8.10797363 2.81120117 -7.45727539 2.39599609 C-2.9924365 -0.31701574 -2.9924365 -0.31701574 0 0 Z " fill="#1A58EB" transform="translate(403.43359375,273.2578125)"/>
<path d="M0 0 C4.39031368 1.20338447 7.73757706 3.29514749 11.55078125 5.734375 C12.32091553 6.21704834 13.0910498 6.69972168 13.88452148 7.19702148 C15.52491957 8.22679299 17.16262967 9.26085675 18.79785156 10.29882812 C21.4322274 11.96549453 24.07961739 13.60968356 26.73046875 15.25 C28.46258409 16.32757143 30.19436422 17.4056819 31.92578125 18.484375 C32.75295654 18.99653564 33.58013184 19.50869629 34.43237305 20.03637695 C35.19461182 20.51550537 35.95685059 20.99463379 36.7421875 21.48828125 C37.41838135 21.91052979 38.0945752 22.33277832 38.79125977 22.76782227 C40.36328125 23.921875 40.36328125 23.921875 41.36328125 25.921875 C37.87119594 24.60652287 34.72542161 23.07018169 31.51953125 21.1640625 C30.15332642 20.35412842 30.15332642 20.35412842 28.75952148 19.52783203 C27.80376221 18.95661621 26.84800293 18.38540039 25.86328125 17.796875 C24.39193726 16.92651611 24.39193726 16.92651611 22.89086914 16.03857422 C18.62007128 13.5040534 14.36781392 10.95605446 10.203125 8.25 C9.6153125 7.87117676 9.0275 7.49235352 8.421875 7.10205078 C6.91331498 6.12012361 5.41704877 5.11937996 3.921875 4.1171875 C0.845123 2.67980412 -0.44134613 2.97549176 -3.63671875 3.921875 C-4.62671875 3.921875 -5.61671875 3.921875 -6.63671875 3.921875 C-3.46584794 -0.10269179 -3.46584794 -0.10269179 0 0 Z " fill="#1752EC" transform="translate(628.63671875,530.078125)"/>
<path d="M0 0 C0.66 0 1.32 0 2 0 C1.67 0.99 1.34 1.98 1 3 C0.34 3 -0.32 3 -1 3 C-1.27585937 3.59941406 -1.55171875 4.19882812 -1.8359375 4.81640625 C-3 7 -3 7 -5.625 9.9375 C-12.36748435 17.60316069 -17.18506414 27.04144145 -22 36 C-22.33 35.34 -22.66 34.68 -23 34 C-19.15941044 24.25081111 -13.50436925 16.14306693 -7 8 C-6.45859375 7.22914063 -5.9171875 6.45828125 -5.359375 5.6640625 C-4.91078125 5.11492187 -4.4621875 4.56578125 -4 4 C-3.34 4 -2.68 4 -2 4 C-1.34 2.68 -0.68 1.36 0 0 Z " fill="#164EE3" transform="translate(451,403)"/>
<path d="M0 0 C0.99 0.33 1.98 0.66 3 1 C2.154375 1.66 1.30875 2.32 0.4375 3 C-8.61554113 10.60706928 -15.6060632 20.83305287 -23 30 C-23 26.04048137 -21.16266889 24.16589224 -18.8125 21.1875 C-18.37631348 20.62651611 -17.94012695 20.06553223 -17.49072266 19.48754883 C-12.06163671 12.63259455 -6.03974311 6.31427689 0 0 Z " fill="#1751E6" transform="translate(347,313)"/>
<path d="M0 0 C0.33 0 0.66 0 1 0 C1.02887236 3.81248426 1.04675492 7.6249407 1.0625 11.4375 C1.07087891 12.52611328 1.07925781 13.61472656 1.08789062 14.73632812 C1.09111328 15.77080078 1.09433594 16.80527344 1.09765625 17.87109375 C1.10289307 18.82943115 1.10812988 19.78776855 1.11352539 20.77514648 C1 23 1 23 0 24 C-0.23287008 25.68183948 -0.41264166 27.3712416 -0.5625 29.0625 C-0.64628906 29.98160156 -0.73007812 30.90070313 -0.81640625 31.84765625 C-0.87699219 32.55792969 -0.93757813 33.26820313 -1 34 C-1.33 34 -1.66 34 -2 34 C-2.11484171 26.06316178 -1.98292151 18.17498531 -1.5625 10.25 C-1.52326416 9.46383301 -1.48402832 8.67766602 -1.44360352 7.86767578 C-1.1224619 2.24492381 -1.1224619 2.24492381 0 0 Z " fill="#194ADA" transform="translate(279,456)"/>
<path d="M0 0 C0.66 0.33 1.32 0.66 2 1 C0.23139162 2.62748003 -1.53975676 4.25203457 -3.3125 5.875 C-4.06176758 6.56529297 -4.06176758 6.56529297 -4.82617188 7.26953125 C-11.12385816 13.02503262 -11.12385816 13.02503262 -14.1875 12.9375 C-18.20079772 11.59973409 -21.50505659 9.35019768 -25 7 C-23.1875 6.375 -23.1875 6.375 -21 6 C-19 7.33333333 -17 8.66666667 -15 10 C-10.87890574 9.79746759 -8.27951839 6.99816436 -5.25 4.4375 C-4.26515625 3.61121094 -3.2803125 2.78492188 -2.265625 1.93359375 C-1.51796875 1.29550781 -0.7703125 0.65742187 0 0 Z " fill="#194EE3" transform="translate(685,653)"/>
<path d="M0 0 C4.66291237 3.64203807 8.31890358 7.43165547 11.73828125 12.265625 C13.02455558 14.12844245 13.02455558 14.12844245 15 16 C13.71283353 17.00578589 12.42011342 18.00446798 11.125 19 C10.40570312 19.556875 9.68640625 20.11375 8.9453125 20.6875 C7 22 7 22 5 22 C5 21.01 5 20.02 5 19 C8 16.8125 8 16.8125 11 15 C9.92027262 13.5805831 8.83604137 12.1645917 7.75 10.75 C7.14671875 9.96109375 6.5434375 9.1721875 5.921875 8.359375 C4.03568944 5.95085226 4.03568944 5.95085226 1.765625 3.828125 C0 2 0 2 0 0 Z " fill="#0836D7" transform="translate(631,391)"/>
<path d="M0 0 C3.94544934 3.83625794 7.56089586 7.87178902 11.125 12.0625 C11.91197266 12.97999023 11.91197266 12.97999023 12.71484375 13.91601562 C15.243574 16.87687067 17.71653283 19.84251608 20 23 C12.46084873 19.60902803 7.69627192 12.54509161 3 6 C2.17242187 4.95392578 2.17242187 4.95392578 1.328125 3.88671875 C0 2 0 2 0 0 Z " fill="#1758EF" transform="translate(439,541)"/>
<path d="M0 0 C5.83096952 3.10157953 10.86601899 6.85556181 16 11 C15.01 11.33 14.02 11.66 13 12 C10.625 10.41796875 10.625 10.41796875 8 8.1875 C5.37223437 5.97814348 2.85926042 3.90617361 0 2 C0 1.34 0 0.68 0 0 Z " fill="#1A58EE" transform="translate(459,564)"/>
<path d="M0 0 C0.99 0.33 1.98 0.66 3 1 C1.50260417 2.20442708 0.00520833 3.40885417 -1.4921875 4.61328125 C-3.25292107 6.12270545 -3.25292107 6.12270545 -5 9 C-5.99 8.67 -6.98 8.34 -8 8 C-5.36 5.36 -2.72 2.72 0 0 Z " fill="#205AE8" transform="translate(347,313)"/>
<path d="M0 0 C0.33 0.99 0.66 1.98 1 3 C2.95597184 4.39712274 4.95436401 5.73779907 7 7 C6.34 7.66 5.68 8.32 5 9 C3.82512964 8.24172908 2.66027408 7.46792245 1.5 6.6875 C0.52546875 6.04361328 0.52546875 6.04361328 -0.46875 5.38671875 C-1.22671875 4.70029297 -1.22671875 4.70029297 -2 4 C-2 3.01 -2 2.02 -2 1 C-1.34 0.67 -0.68 0.34 0 0 Z " fill="#194AE0" transform="translate(568,589)"/>
<path d="M0 0 C2.78637633 4.1795645 1.79562512 6.14668677 1 11 C0.34 10.34 -0.32 9.68 -1 9 C-0.9765625 6.8359375 -0.9765625 6.8359375 -0.625 4.375 C-0.51414062 3.55773437 -0.40328125 2.74046875 -0.2890625 1.8984375 C-0.19367188 1.27195312 -0.09828125 0.64546875 0 0 Z " fill="#1951E5" transform="translate(282,431)"/>
<path d="M0 0 C0 0.66 0 1.32 0 2 C-2.31 2.66 -4.62 3.32 -7 4 C-6.67 2.68 -6.34 1.36 -6 0 C-2.25 -1.125 -2.25 -1.125 0 0 Z " fill="#154CE4" transform="translate(491,379)"/>
<path d="M0 0 C2.97 0.33 5.94 0.66 9 1 C9 1.33 9 1.66 9 2 C4.545 2.495 4.545 2.495 0 3 C0 2.01 0 1.02 0 0 Z " fill="#134AE0" transform="translate(502,374)"/>
<path d="M0 0 C1.36125 0.37125 1.36125 0.37125 2.75 0.75 C2.75 1.08 2.75 1.41 2.75 1.75 C-3.875 3.75 -3.875 3.75 -7.25 3.75 C-4.05 -0.31153846 -4.05 -0.31153846 0 0 Z " fill="#215BEA" transform="translate(629.25,530.25)"/>
<path d="M0 0 C2.64 1.65 5.28 3.3 8 5 C7.34 5.66 6.68 6.32 6 7 C3.69 5.35 1.38 3.7 -1 2 C-0.67 1.34 -0.34 0.68 0 0 Z " fill="#1548E5" transform="translate(623,631)"/>
<path d="M0 0 C1.98 0 3.96 0 6 0 C6 0.33 6 0.66 6 1 C4.02 1 2.04 1 0 1 C0 0.67 0 0.34 0 0 Z " fill="#3F80EC" transform="translate(502,240)"/>
<path d="M0 0 C0 3 0 3 0 3 Z " fill="#2A59D3" transform="translate(369,668)"/>
<path d="M0 0 C0.99 0.495 0.99 0.495 2 1 C1.67 1.66 1.34 2.32 1 3 C0.67 2.01 0.34 1.02 0 0 Z " fill="#3D7CE6" transform="translate(726,336)"/>
<path d="M0 0 C4 1 4 1 4 1 Z " fill="#3D80EC" transform="translate(537,240)"/>
<path d="" fill="#336ADF" transform="translate(0,0)"/>
<path d="M0 0 C3 1 3 1 3 1 Z " fill="#1F4FD9" transform="translate(561,380)"/>
<path d="M0 0 C0.99 0.495 0.99 0.495 2 1 C1.01 1.495 1.01 1.495 0 2 C0 1.34 0 0.68 0 0 Z " fill="#3F7BEB" transform="translate(413,264)"/>
<path d="M0 0 C2 1 2 1 2 1 Z " fill="#2E5FD8" transform="translate(537,717)"/>
<path d="M0 0 C2 1 2 1 2 1 Z " fill="#3062D7" transform="translate(558,715)"/>
<path d="M0 0 C2 1 2 1 2 1 Z " fill="#2769EE" transform="translate(619,656)"/>
<path d="" fill="#2767EE" transform="translate(0,0)"/>
<path d="" fill="#3A7FF4" transform="translate(0,0)"/>
<path d="" fill="#2B5ED9" transform="translate(0,0)"/>
<path d="" fill="#336EE5" transform="translate(0,0)"/>
<path d="M0 0 C2 1 2 1 2 1 Z " fill="#1F55DB" transform="translate(569,383)"/>
<path d="M0 0 C2 1 2 1 2 1 Z " fill="#3D7FEC" transform="translate(670,284)"/>
<path d="M0 0 C2 1 2 1 2 1 Z " fill="#3F80E7" transform="translate(434,256)"/>
<path d="M0 0 C2 1 2 1 2 1 Z " fill="#3F7DEF" transform="translate(598,250)"/>
<path d="M0 0 C2 1 2 1 2 1 Z " fill="#4281F0" transform="translate(556,241)"/>
<path d="M0 0 C2 1 2 1 2 1 Z " fill="#3C7DEA" transform="translate(542,240)"/>
<path d="M0 0 C2 1 2 1 2 1 Z " fill="#4081EC" transform="translate(497,240)"/>
<path d="" fill="#474847" transform="translate(0,0)"/>
<path d="" fill="#4A4A49" transform="translate(0,0)"/>
<path d="" fill="#3060D8" transform="translate(0,0)"/>
<path d="" fill="#2D5ED6" transform="translate(0,0)"/>
<path d="" fill="#2D5CD2" transform="translate(0,0)"/>
<path d="" fill="#2E5CD0" transform="translate(0,0)"/>
<path d="" fill="#2F5ED0" transform="translate(0,0)"/>
<path d="" fill="#2B59D5" transform="translate(0,0)"/>
<path d="" fill="#2B58D3" transform="translate(0,0)"/>
<path d="" fill="#2B59D4" transform="translate(0,0)"/>
<path d="" fill="#2656D4" transform="translate(0,0)"/>
<path d="" fill="#2C6BEC" transform="translate(0,0)"/>
<path d="" fill="#396EE1" transform="translate(0,0)"/>
<path d="" fill="#2F6CEA" transform="translate(0,0)"/>
<path d="" fill="#306EE9" transform="translate(0,0)"/>
<path d="" fill="#2E6AEB" transform="translate(0,0)"/>
<path d="" fill="#3B71E2" transform="translate(0,0)"/>
<path d="" fill="#2A68EE" transform="translate(0,0)"/>
<path d="" fill="#2D6BED" transform="translate(0,0)"/>
<path d="" fill="#3B75E5" transform="translate(0,0)"/>
<path d="" fill="#2558D6" transform="translate(0,0)"/>
<path d="" fill="#2A64EE" transform="translate(0,0)"/>
<path d="" fill="#2A67EE" transform="translate(0,0)"/>
<path d="" fill="#2E70EF" transform="translate(0,0)"/>
<path d="" fill="#2856D9" transform="translate(0,0)"/>
<path d="" fill="#2756DA" transform="translate(0,0)"/>
<path d="" fill="#3773F0" transform="translate(0,0)"/>
<path d="" fill="#2A5AD9" transform="translate(0,0)"/>
<path d="" fill="#2754D4" transform="translate(0,0)"/>
<path d="" fill="#4078DF" transform="translate(0,0)"/>
<path d="" fill="#397DE9" transform="translate(0,0)"/>
<path d="" fill="#3C78E7" transform="translate(0,0)"/>
<path d="" fill="#3E76E1" transform="translate(0,0)"/>
<path d="" fill="#3E7CE5" transform="translate(0,0)"/>
<path d="" fill="#3977EC" transform="translate(0,0)"/>
<path d="" fill="#3C78EC" transform="translate(0,0)"/>
<path d="" fill="#3779E6" transform="translate(0,0)"/>
<path d="" fill="#3C82F2" transform="translate(0,0)"/>
<path d="" fill="#3A7CF3" transform="translate(0,0)"/>
<path d="" fill="#295ADA" transform="translate(0,0)"/>
<path d="" fill="#3879EA" transform="translate(0,0)"/>
<path d="" fill="#336EEA" transform="translate(0,0)"/>
<path d="" fill="#3975ED" transform="translate(0,0)"/>
<path d="" fill="#3A78EC" transform="translate(0,0)"/>
<path d="" fill="#3978EA" transform="translate(0,0)"/>
<path d="" fill="#275BD7" transform="translate(0,0)"/>
<path d="" fill="#295DDA" transform="translate(0,0)"/>
<path d="" fill="#2A5EDB" transform="translate(0,0)"/>
<path d="" fill="#2D5ED9" transform="translate(0,0)"/>
<path d="" fill="#3C75E7" transform="translate(0,0)"/>
<path d="" fill="#3A77E6" transform="translate(0,0)"/>
<path d="" fill="#3A78E5" transform="translate(0,0)"/>
<path d="" fill="#387CF1" transform="translate(0,0)"/>
<path d="" fill="#3063DB" transform="translate(0,0)"/>
<path d="" fill="#3C7CF1" transform="translate(0,0)"/>
<path d="" fill="#3876EE" transform="translate(0,0)"/>
<path d="" fill="#3162DD" transform="translate(0,0)"/>
<path d="" fill="#3373E8" transform="translate(0,0)"/>
<path d="" fill="#3669DF" transform="translate(0,0)"/>
<path d="" fill="#2C5FD4" transform="translate(0,0)"/>
<path d="" fill="#2857D3" transform="translate(0,0)"/>
<path d="" fill="#2454D7" transform="translate(0,0)"/>
<path d="" fill="#376FE4" transform="translate(0,0)"/>
<path d="" fill="#2055D7" transform="translate(0,0)"/>
<path d="" fill="#3572E4" transform="translate(0,0)"/>
<path d="" fill="#2055D9" transform="translate(0,0)"/>
<path d="" fill="#3871E5" transform="translate(0,0)"/>
<path d="" fill="#204FD6" transform="translate(0,0)"/>
<path d="" fill="#1F51DA" transform="translate(0,0)"/>
<path d="" fill="#2354DA" transform="translate(0,0)"/>
<path d="" fill="#2352DB" transform="translate(0,0)"/>
<path d="" fill="#3770E8" transform="translate(0,0)"/>
<path d="" fill="#3B76E3" transform="translate(0,0)"/>
<path d="" fill="#3973E2" transform="translate(0,0)"/>
<path d="" fill="#3A74EA" transform="translate(0,0)"/>
<path d="" fill="#3F7BE5" transform="translate(0,0)"/>
<path d="" fill="#3B78E7" transform="translate(0,0)"/>
<path d="" fill="#3B75E6" transform="translate(0,0)"/>
<path d="" fill="#417FED" transform="translate(0,0)"/>
<path d="" fill="#3E7AE7" transform="translate(0,0)"/>
<path d="" fill="#3A7BEA" transform="translate(0,0)"/>
<path d="" fill="#3D78EB" transform="translate(0,0)"/>
<path d="" fill="#3E7DEF" transform="translate(0,0)"/>
<path d="" fill="#3E7EEF" transform="translate(0,0)"/>
<path d="" fill="#4082E9" transform="translate(0,0)"/>
<path d="" fill="#3D80ED" transform="translate(0,0)"/>
<path d="" fill="#3D81EF" transform="translate(0,0)"/>
<path d="" fill="#4381EE" transform="translate(0,0)"/>
<path d="" fill="#407EEE" transform="translate(0,0)"/>
<path d="" fill="#4082EE" transform="translate(0,0)"/>
<path d="" fill="#4081ED" transform="translate(0,0)"/>
<path d="" fill="#427EED" transform="translate(0,0)"/>
<path d="" fill="#4082EC" transform="translate(0,0)"/>
<path d="" fill="#4381EC" transform="translate(0,0)"/>
<path d="" fill="#4282EA" transform="translate(0,0)"/>
<path d="" fill="#4582ED" transform="translate(0,0)"/>
<path d="" fill="#4482EC" transform="translate(0,0)"/>
<path d="" fill="#447EEE" transform="translate(0,0)"/>
<path d="" fill="#4281F0" transform="translate(0,0)"/>
<path d="" fill="#3F7FEC" transform="translate(0,0)"/>
<path d="" fill="#4182EE" transform="translate(0,0)"/>
</svg>
